<?xml version="1.0" encoding="UTF-8"?>
<!DOCTYPE svg PUBLIC "-//W3C//DTD SVG 1.1//EN" "http://www.w3.org/Graphics/SVG/1.1/DTD/svg11.dtd">
<svg xmlns="http://www.w3.org/2000/svg" version="1.1" width="1024px" height="1024px" style="shape-rendering:geometricPrecision; text-rendering:geometricPrecision; image-rendering:optimizeQuality; fill-rule:evenodd; clip-rule:evenodd" xmlns:xlink="http://www.w3.org/1999/xlink">
<g><path style="opacity:0.004" fill="#fefffe" d="M 718.5,100.5 C 719.833,101.167 719.833,101.167 718.5,100.5 Z"/></g>
<g><path style="opacity:0.997" fill="#fa7e92" d="M 708.5,100.5 C 709.791,100.263 710.791,100.596 711.5,101.5C 708.903,101.721 708.903,102.221 711.5,103C 734.299,107.14 754.299,116.807 771.5,132C 780.369,140.702 789.036,149.535 797.5,158.5C 797.047,159.458 796.381,160.292 795.5,161C 796.5,162 797.5,163 798.5,164C 797.333,164.5 796.5,165.333 796,166.5C 795.667,165.167 795.333,163.833 795,162.5C 794.333,163.833 793.667,163.833 793,162.5C 791.887,163.76 791.72,164.927 792.5,166C 791.324,167.914 790.324,167.748 789.5,165.5C 788.808,166.025 788.308,166.692 788,167.5C 787.276,165.328 786.776,162.994 786.5,160.5C 787.5,159.833 788.5,159.167 789.5,158.5C 789.333,158.167 789.167,157.833 789,157.5C 787.951,158.517 786.784,158.684 785.5,158C 785.833,157.667 786.167,157.333 786.5,157C 784.597,155.172 782.764,155.339 781,157.5C 779.221,155.983 779.721,155.149 782.5,155C 783.866,152.562 783.366,152.062 781,153.5C 779.775,153.138 778.609,152.638 777.5,152C 777.833,151.667 778.167,151.333 778.5,151C 776.972,149.639 775.305,148.472 773.5,147.5C 772.571,146.311 772.238,144.978 772.5,143.5C 768.839,143.426 768.172,144.426 770.5,146.5C 769.41,148.003 768.243,148.336 767,147.5C 766.667,148.5 766.333,149.5 766,150.5C 764.326,149.324 762.826,147.99 761.5,146.5C 760.52,147.981 759.353,149.315 758,150.5C 756.823,148.824 755.323,147.491 753.5,146.5C 754.855,145.325 754.688,144.325 753,143.5C 751.615,144.551 750.615,145.884 750,147.5C 749.249,143.56 750.749,140.727 754.5,139C 753.285,136.904 752.451,137.071 752,139.5C 751.667,138.833 751.333,138.167 751,137.5C 750.755,139.663 749.755,141.33 748,142.5C 746.726,138.515 744.726,137.848 742,140.5C 739.333,139.167 737.333,139.833 736,142.5C 734.16,141.167 733.66,141.334 734.5,143C 731.279,143.278 728.279,144.111 725.5,145.5C 711.079,138.064 695.746,135.064 679.5,136.5C 671.035,137.283 663.035,139.616 655.5,143.5C 657.06,141.871 656.727,140.704 654.5,140C 658.46,139.438 659.293,137.605 657,134.5C 655.102,136.454 653.102,137.454 651,137.5C 650,135.833 649,134.167 648,132.5C 647.383,133.449 647.549,134.282 648.5,135C 646.227,134.683 645.227,133.183 645.5,130.5C 642.615,131.545 640.448,133.545 639,136.5C 637.915,134.343 636.749,134.176 635.5,136C 638.277,138.173 638.11,138.673 635,137.5C 634.692,138.308 634.192,138.975 633.5,139.5C 633.331,138.603 632.998,137.603 632.5,136.5C 630.902,136.39 629.235,136.057 627.5,135.5C 626.858,132.203 625.691,131.869 624,134.5C 622.739,131.18 621.072,130.846 619,133.5C 618.576,129.81 617.742,129.643 616.5,133C 618.973,134.402 618.973,135.902 616.5,137.5C 616.167,136.833 615.833,136.167 615.5,135.5C 614.184,138.028 613.017,138.028 612,135.5C 610.692,136.151 609.859,135.485 609.5,133.5C 626.23,116.293 646.563,105.793 670.5,102C 683.32,100.607 695.987,100.107 708.5,100.5 Z"/></g>
<g><path style="opacity:1" fill="#f87566" d="M 708.5,100.5 C 695.987,100.107 683.32,100.607 670.5,102C 646.563,105.793 626.23,116.293 609.5,133.5C 560.779,181.554 512.446,229.887 464.5,278.5C 459.167,283.5 453.833,288.5 448.5,293.5C 447.833,293.5 447.167,293.5 446.5,293.5C 504.102,234.73 562.435,176.897 621.5,120C 647.972,102.338 676.972,95.8384 708.5,100.5 Z"/></g>
<g><path style="opacity:0.988" fill="#f77462" d="M 711.5,101.5 C 732.254,105.047 750.921,113.214 767.5,126C 775.338,133.005 783.004,140.172 790.5,147.5C 811.493,168.66 832.327,189.994 853,211.5C 884.034,253.17 887.867,297.17 864.5,343.5C 863.957,343.44 863.624,343.107 863.5,342.5C 867.082,335.756 870.082,328.756 872.5,321.5C 884.454,278.755 875.954,240.755 847,207.5C 830.659,190.992 814.159,174.659 797.5,158.5C 789.036,149.535 780.369,140.702 771.5,132C 754.299,116.807 734.299,107.14 711.5,103C 708.903,102.221 708.903,101.721 711.5,101.5 Z"/></g>
<g><path style="opacity:0.004" fill="#fe00ff" d="M 790.5,146.5 C 791.833,147.167 791.833,147.167 790.5,146.5 Z"/></g>
<g><path style="opacity:0.997" fill="#fa7a8f" d="M 797.5,158.5 C 814.159,174.659 830.659,190.992 847,207.5C 875.954,240.755 884.454,278.755 872.5,321.5C 872.163,316.093 871.663,310.426 871,304.5C 868.266,305.362 868.099,306.195 870.5,307C 869.584,307.374 868.75,307.874 868,308.5C 866.47,306.774 865.47,304.774 865,302.5C 863.372,303.097 861.705,302.763 860,301.5C 859.5,302 859,302.5 858.5,303C 859.711,305.453 859.711,307.953 858.5,310.5C 859.365,311.583 860.365,311.749 861.5,311C 860.396,309.869 860.729,309.035 862.5,308.5C 863.308,308.808 863.975,309.308 864.5,310C 863.717,311.94 861.884,313.44 859,314.5C 858.667,314.167 858.333,313.833 858,313.5C 857.138,315.087 856.471,316.754 856,318.5C 853.519,317.851 853.186,316.851 855,315.5C 855.667,314.167 855.667,312.833 855,311.5C 852.86,310.272 851.193,308.605 850,306.5C 848.654,309.249 847.32,309.583 846,307.5C 844.249,308.809 842.749,308.475 841.5,306.5C 840.749,307.376 840.249,308.376 840,309.5C 839.601,309.272 839.435,308.938 839.5,308.5C 843.523,286.299 839.69,265.632 828,246.5C 823.667,240.833 819.333,235.167 815,229.5C 790.806,205.306 766.64,181.14 742.5,157C 736.768,153.144 731.101,149.31 725.5,145.5C 728.279,144.111 731.279,143.278 734.5,143C 733.66,141.334 734.16,141.167 736,142.5C 737.333,139.833 739.333,139.167 742,140.5C 744.726,137.848 746.726,138.515 748,142.5C 749.755,141.33 750.755,139.663 751,137.5C 751.333,138.167 751.667,138.833 752,139.5C 752.451,137.071 753.285,136.904 754.5,139C 750.749,140.727 749.249,143.56 750,147.5C 750.615,145.884 751.615,144.551 753,143.5C 754.688,144.325 754.855,145.325 753.5,146.5C 755.323,147.491 756.823,148.824 758,150.5C 759.353,149.315 760.52,147.981 761.5,146.5C 762.826,147.99 764.326,149.324 766,150.5C 766.333,149.5 766.667,148.5 767,147.5C 768.243,148.336 769.41,148.003 770.5,146.5C 768.172,144.426 768.839,143.426 772.5,143.5C 772.238,144.978 772.571,146.311 773.5,147.5C 775.305,148.472 776.972,149.639 778.5,151C 778.167,151.333 777.833,151.667 777.5,152C 778.609,152.638 779.775,153.138 781,153.5C 783.366,152.062 783.866,152.562 782.5,155C 779.721,155.149 779.221,155.983 781,157.5C 782.764,155.339 784.597,155.172 786.5,157C 786.167,157.333 785.833,157.667 785.5,158C 786.784,158.684 787.951,158.517 789,157.5C 789.167,157.833 789.333,158.167 789.5,158.5C 788.5,159.167 787.5,159.833 786.5,160.5C 786.776,162.994 787.276,165.328 788,167.5C 788.308,166.692 788.808,166.025 789.5,165.5C 790.324,167.748 791.324,167.914 792.5,166C 791.72,164.927 791.887,163.76 793,162.5C 793.667,163.833 794.333,163.833 795,162.5C 795.333,163.833 795.667,165.167 796,166.5C 796.5,165.333 797.333,164.5 798.5,164C 797.5,163 796.5,162 795.5,161C 796.381,160.292 797.047,159.458 797.5,158.5 Z"/></g>
<g><path style="opacity:0.997" fill="#f9788e" d="M 655.5,143.5 C 649.462,146.69 643.796,150.524 638.5,155C 626.374,166.96 614.374,179.127 602.5,191.5C 636.746,226.08 671.079,260.747 705.5,295.5C 704.027,296.74 702.36,297.74 700.5,298.5C 698.289,294.954 695.289,293.454 691.5,294C 691.833,293.667 692.167,293.333 692.5,293C 691,291.5 689.5,290 688,288.5C 687.667,289.167 687.333,289.833 687,290.5C 685.964,287.706 684.464,287.206 682.5,289C 686.272,290.389 686.272,291.389 682.5,292C 683.337,293.011 683.67,294.178 683.5,295.5C 685.199,295.34 686.866,295.506 688.5,296C 685.456,296.359 685.122,297.026 687.5,298C 686.833,298.167 686.167,298.333 685.5,298.5C 683.845,297.612 682.178,297.112 680.5,297C 683.318,299.115 683.151,300.948 680,302.5C 679.957,299.783 678.957,299.116 677,300.5C 672.543,297.86 672.377,295.027 676.5,292C 675.747,290.513 674.914,290.346 674,291.5C 673.667,290.5 673.333,289.5 673,288.5C 672.667,288.833 672.333,289.167 672,289.5C 669.336,287.646 668.503,285.312 669.5,282.5C 669.167,282.167 668.833,281.833 668.5,281.5C 667.833,282.167 667.167,282.833 666.5,283.5C 664.556,282.811 662.556,282.311 660.5,282C 661.579,281.044 662.745,280.211 664,279.5C 664.58,276.453 664.247,276.119 663,278.5C 662.71,276.956 662.044,275.623 661,274.5C 660.316,275.784 660.483,276.951 661.5,278C 659.598,278.199 658.098,279.033 657,280.5C 655.312,279.675 655.145,278.675 656.5,277.5C 655.624,276.749 654.624,276.249 653.5,276C 654.517,274.951 654.684,273.784 654,272.5C 653.667,272.833 653.333,273.167 653,273.5C 652.667,272.5 652.333,271.5 652,270.5C 651.333,269.167 650.667,269.167 650,270.5C 649.626,269.584 649.126,268.75 648.5,268C 652.067,266.187 652.901,263.687 651,260.5C 648.901,265.408 645.735,269.574 641.5,273C 642.253,274.487 643.086,274.654 644,273.5C 644.667,274.833 644.667,276.167 644,277.5C 643.667,276.833 643.333,276.167 643,275.5C 642.261,277.221 641.427,278.887 640.5,280.5C 640.521,278.398 640.187,276.232 639.5,274C 641.825,272.119 641.825,270.452 639.5,269C 639.833,268.5 640.167,268 640.5,267.5C 644.221,268.657 644.388,267.991 641,265.5C 640.5,265.667 640,265.833 639.5,266C 638.751,267.734 638.251,269.567 638,271.5C 637.458,266.279 636.624,266.279 635.5,271.5C 634.723,269.219 633.723,267.052 632.5,265C 633.744,264.544 634.577,265.044 635,266.5C 636.713,264.179 635.88,263.179 632.5,263.5C 632.798,260.664 632.131,260.164 630.5,262C 630.833,262.333 631.167,262.667 631.5,263C 628.944,263.969 626.277,264.469 623.5,264.5C 623.723,265.967 624.056,267.467 624.5,269C 623.672,269.915 622.672,270.581 621.5,271C 622.34,272.666 621.84,272.833 620,271.5C 619.5,272 619,272.5 618.5,273C 622.827,273.159 624.494,275.159 623.5,279C 626.346,280.4 626.679,281.9 624.5,283.5C 623.749,282.624 623.249,281.624 623,280.5C 622,281.167 621,281.833 620,282.5C 619.228,281.151 618.061,280.318 616.5,280C 617.953,277.886 619.953,276.552 622.5,276C 620.444,275.689 618.444,275.189 616.5,274.5C 615.614,275.325 615.281,276.325 615.5,277.5C 613.876,277.36 612.71,278.027 612,279.5C 611.333,278.167 610.667,276.833 610,275.5C 609.626,276.416 609.126,277.25 608.5,278C 610.158,278.725 610.658,279.892 610,281.5C 608.33,281.344 606.663,282.01 605,283.5C 604.228,283.355 603.561,283.022 603,282.5C 596.936,288.395 591.103,294.395 585.5,300.5C 584.33,302.279 582.664,303.279 580.5,303.5C 593.701,290.134 606.701,276.634 619.5,263C 606.431,248.598 592.764,234.931 578.5,222C 577.101,221.405 575.768,221.572 574.5,222.5C 568.622,227.544 563.288,233.044 558.5,239C 558.728,239.399 559.062,239.565 559.5,239.5C 553.5,246.167 547.167,252.5 540.5,258.5C 540.103,257.475 539.437,257.308 538.5,258C 533.941,263.723 528.941,268.89 523.5,273.5C 521.069,271.932 521.069,270.432 523.5,269C 522.004,268.493 520.837,268.993 520,270.5C 518.493,269.465 516.993,269.632 515.5,271C 516.696,271.654 516.696,272.154 515.5,272.5C 514.757,271.092 513.923,269.759 513,268.5C 511.842,272.22 509.509,273.22 506,271.5C 504.739,271.759 503.739,272.426 503,273.5C 502.667,273.167 502.333,272.833 502,272.5C 501,274.5 500,276.5 499,278.5C 497.702,277.44 496.535,276.274 495.5,275C 495.905,274.055 496.572,273.388 497.5,273C 497.167,272.667 496.833,272.333 496.5,272C 494.544,272.222 492.71,273.055 491,274.5C 489.225,271.956 487.392,271.956 485.5,274.5C 487.113,275.427 488.779,276.261 490.5,277C 489.299,277.903 488.465,279.069 488,280.5C 486.571,277.644 484.737,277.144 482.5,279C 483.624,279.249 484.624,279.749 485.5,280.5C 485.154,281.696 484.654,281.696 484,280.5C 483.667,281.5 483.333,282.5 483,283.5C 481.989,282.663 480.822,282.33 479.5,282.5C 479.36,280.876 480.027,279.71 481.5,279C 480.428,277.716 479.095,277.383 477.5,278C 478.451,277.282 478.617,276.449 478,275.5C 476.866,273 475.032,271.833 472.5,272C 473.167,273 473.833,274 474.5,275C 472.767,277.275 470.933,279.442 469,281.5C 467.676,279.461 466.176,278.461 464.5,278.5C 512.446,229.887 560.779,181.554 609.5,133.5C 609.859,135.485 610.692,136.151 612,135.5C 613.017,138.028 614.184,138.028 615.5,135.5C 615.833,136.167 616.167,136.833 616.5,137.5C 618.973,135.902 618.973,134.402 616.5,133C 617.742,129.643 618.576,129.81 619,133.5C 621.072,130.846 622.739,131.18 624,134.5C 625.691,131.869 626.858,132.203 627.5,135.5C 629.235,136.057 630.902,136.39 632.5,136.5C 632.998,137.603 633.331,138.603 633.5,139.5C 634.192,138.975 634.692,138.308 635,137.5C 638.11,138.673 638.277,138.173 635.5,136C 636.749,134.176 637.915,134.343 639,136.5C 640.448,133.545 642.615,131.545 645.5,130.5C 645.227,133.183 646.227,134.683 648.5,135C 647.549,134.282 647.383,133.449 648,132.5C 649,134.167 650,135.833 651,137.5C 653.102,137.454 655.102,136.454 657,134.5C 659.293,137.605 658.46,139.438 654.5,140C 656.727,140.704 657.06,141.871 655.5,143.5 Z"/></g>
<g><path style="opacity:0.004" fill="#fe00ff" d="M 875.5,250.5 C 876.525,250.897 876.692,251.563 876,252.5C 875.536,251.906 875.369,251.239 875.5,250.5 Z"/></g>
<g><path style="opacity:0.937" fill="#f66c62" d="M 540.5,258.5 C 533.466,266.535 525.799,273.868 517.5,280.5C 518.787,277.547 520.787,275.214 523.5,273.5C 528.941,268.89 533.941,263.723 538.5,258C 539.437,257.308 540.103,257.475 540.5,258.5 Z"/></g>
<g><path style="opacity:0.008" fill="#fe807f" d="M 878.5,260.5 C 879.833,261.167 879.833,261.167 878.5,260.5 Z"/></g>
<g><path style="opacity:0.996" fill="#f7738e" d="M 523.5,273.5 C 520.787,275.214 518.787,277.547 517.5,280.5C 516.203,282.161 514.87,283.828 513.5,285.5C 512.448,285.351 511.448,285.517 510.5,286C 492.269,304.732 473.602,322.899 454.5,340.5C 452.451,340.294 452.117,339.461 453.5,338C 451.193,337.691 449.026,336.858 447,335.5C 446.667,335.833 446.333,336.167 446,336.5C 445.5,334.667 444.333,333.5 442.5,333C 444.5,332.333 445.833,331 446.5,329C 445.004,328.493 443.837,328.993 443,330.5C 442.047,328.408 440.714,328.075 439,329.5C 438.51,328.207 438.343,326.873 438.5,325.5C 440.124,325.36 441.29,326.027 442,327.5C 443.961,324.291 443.127,323.291 439.5,324.5C 438.117,321.924 437.283,322.258 437,325.5C 436.586,325.043 436.086,324.709 435.5,324.5C 434.52,325.981 433.353,327.315 432,328.5C 429.313,325.667 430.146,323.5 434.5,322C 433.315,320.647 431.981,319.48 430.5,318.5C 431.376,317.749 432.376,317.249 433.5,317C 432.601,315.348 431.601,313.848 430.5,312.5C 436.113,305.885 442.113,299.551 448.5,293.5C 453.833,288.5 459.167,283.5 464.5,278.5C 466.176,278.461 467.676,279.461 469,281.5C 470.933,279.442 472.767,277.275 474.5,275C 473.833,274 473.167,273 472.5,272C 475.032,271.833 476.866,273 478,275.5C 478.617,276.449 478.451,277.282 477.5,278C 479.095,277.383 480.428,277.716 481.5,279C 480.027,279.71 479.36,280.876 479.5,282.5C 480.822,282.33 481.989,282.663 483,283.5C 483.333,282.5 483.667,281.5 484,280.5C 484.654,281.696 485.154,281.696 485.5,280.5C 484.624,279.749 483.624,279.249 482.5,279C 484.737,277.144 486.571,277.644 488,280.5C 488.465,279.069 489.299,277.903 490.5,277C 488.779,276.261 487.113,275.427 485.5,274.5C 487.392,271.956 489.225,271.956 491,274.5C 492.71,273.055 494.544,272.222 496.5,272C 496.833,272.333 497.167,272.667 497.5,273C 496.572,273.388 495.905,274.055 495.5,275C 496.535,276.274 497.702,277.44 499,278.5C 500,276.5 501,274.5 502,272.5C 502.333,272.833 502.667,273.167 503,273.5C 503.739,272.426 504.739,271.759 506,271.5C 509.509,273.22 511.842,272.22 513,268.5C 513.923,269.759 514.757,271.092 515.5,272.5C 516.696,272.154 516.696,271.654 515.5,271C 516.993,269.632 518.493,269.465 520,270.5C 520.837,268.993 522.004,268.493 523.5,269C 521.069,270.432 521.069,271.932 523.5,273.5 Z"/></g>
<g><path style="opacity:0.984" fill="#fa7261" d="M 679.5,136.5 C 695.746,135.064 711.079,138.064 725.5,145.5C 731.101,149.31 736.768,153.144 742.5,157C 766.64,181.14 790.806,205.306 815,229.5C 819.333,235.167 823.667,240.833 828,246.5C 839.69,265.632 843.523,286.299 839.5,308.5C 836.416,319.012 831.916,329.012 826,338.5C 813.988,351.678 801.488,364.345 788.5,376.5C 787.5,376 786.5,375.5 785.5,375C 780.694,370.194 775.86,365.36 771,360.5C 770.308,359.563 770.475,358.897 771.5,358.5C 777.131,363.63 782.631,368.964 788,374.5C 801.32,362.247 813.987,349.247 826,335.5C 844.893,302.433 843.227,270.433 821,239.5C 794.862,211.131 767.696,183.631 739.5,157C 723.236,143.855 704.57,137.355 683.5,137.5C 681.901,137.768 680.568,137.434 679.5,136.5 Z"/></g>
<g><path style="opacity:0.973" fill="#fa7668" d="M 679.5,136.5 C 680.568,137.434 681.901,137.768 683.5,137.5C 664.979,139.512 648.979,147.012 635.5,160C 625.628,171.038 615.294,181.538 604.5,191.5C 659.917,246.251 715.251,301.584 770.5,357.5C 769.883,357.611 769.383,357.944 769,358.5C 747.911,337.244 726.745,316.244 705.5,295.5C 671.079,260.747 636.746,226.08 602.5,191.5C 614.374,179.127 626.374,166.96 638.5,155C 643.796,150.524 649.462,146.69 655.5,143.5C 663.035,139.616 671.035,137.283 679.5,136.5 Z"/></g>
<g><path style="opacity:0.997" fill="#f7738c" d="M 613.5,320.5 C 586.833,347.833 559.833,374.833 532.5,401.5C 529.772,399.931 527.938,397.598 527,394.5C 524.354,397.246 521.188,398.413 517.5,398C 518.815,396.605 518.481,395.605 516.5,395C 517.28,393.927 517.113,392.76 516,391.5C 515.599,393.521 514.432,394.855 512.5,395.5C 513.016,394.242 512.35,393.242 510.5,392.5C 508.736,395.177 507.57,394.844 507,391.5C 504.507,392.973 505.007,394.473 508.5,396C 508.868,397.473 508.368,398.973 507,400.5C 506.333,398.5 505.667,396.5 505,394.5C 503.333,397.167 501.667,397.167 500,394.5C 499.035,396.26 497.868,396.594 496.5,395.5C 497.025,394.808 497.692,394.308 498.5,394C 496.82,393.653 495.82,392.653 495.5,391C 497.024,389.806 498.19,388.306 499,386.5C 500.84,387.833 501.34,387.666 500.5,386C 501.667,385.5 502.5,384.667 503,383.5C 503.718,384.451 504.551,384.617 505.5,384C 504.289,382.887 504.289,381.72 505.5,380.5C 505.043,379.702 504.376,379.369 503.5,379.5C 503.953,378.542 504.619,377.708 505.5,377C 505.272,376.601 504.938,376.435 504.5,376.5C 510.167,370.167 516.167,364.167 522.5,358.5C 522.897,359.525 523.563,359.692 524.5,359C 542.981,340.353 561.648,321.853 580.5,303.5C 582.664,303.279 584.33,302.279 585.5,300.5C 586.88,301.706 588.047,301.373 589,299.5C 589.374,300.416 589.874,301.25 590.5,302C 589.874,302.75 589.374,303.584 589,304.5C 588.667,304.167 588.333,303.833 588,303.5C 581.927,305.665 582.094,307.331 588.5,308.5C 587.833,309.167 587.167,309.833 586.5,310.5C 587.605,311.892 588.939,313.059 590.5,314C 589.446,315.388 589.28,316.888 590,318.5C 591.063,317.562 592.23,316.562 593.5,315.5C 594.192,316.025 594.692,316.692 595,317.5C 597.43,314.408 599.43,311.075 601,307.5C 601.556,309.595 602.056,309.762 602.5,308C 601.465,306.726 600.298,305.56 599,304.5C 598.333,303.833 598.333,303.167 599,302.5C 599.689,303.357 600.522,304.023 601.5,304.5C 602.72,303.289 603.887,303.289 605,304.5C 605.915,303.672 606.581,302.672 607,301.5C 607.68,303.976 606.847,305.809 604.5,307C 606.667,307.833 608.167,309.333 609,311.5C 609.692,310.975 610.192,310.308 610.5,309.5C 609.177,304.912 609.677,304.578 612,308.5C 612.333,308.167 612.667,307.833 613,307.5C 612.973,309.417 612.139,311.084 610.5,312.5C 614.438,315.281 614.105,317.614 609.5,319.5C 608.808,318.975 608.308,318.308 608,317.5C 606.902,318.967 605.402,319.801 603.5,320C 604.931,320.465 606.097,321.299 607,322.5C 609.118,320.637 611.284,319.97 613.5,320.5 Z"/></g>
<g><path style="opacity:0.902" fill="#f86e65" d="M 580.5,303.5 C 561.648,321.853 542.981,340.353 524.5,359C 523.563,359.692 522.897,359.525 522.5,358.5C 553.857,326.643 585.523,294.809 617.5,263C 604,249.5 590.5,236 577,222.5C 571.298,228.37 565.465,234.036 559.5,239.5C 559.062,239.565 558.728,239.399 558.5,239C 563.288,233.044 568.622,227.544 574.5,222.5C 575.768,221.572 577.101,221.405 578.5,222C 592.764,234.931 606.431,248.598 619.5,263C 606.701,276.634 593.701,290.134 580.5,303.5 Z"/></g>
<g><path style="opacity:0.976" fill="#f26467" d="M 446.5,293.5 C 447.167,293.5 447.833,293.5 448.5,293.5C 442.113,299.551 436.113,305.885 430.5,312.5C 416.833,325.5 403.5,338.833 390.5,352.5C 369.589,372.911 348.755,393.577 328,414.5C 327.536,413.906 327.369,413.239 327.5,412.5C 366.833,372.5 406.5,332.833 446.5,293.5 Z"/></g>
<g><path style="opacity:0.914" fill="#f46a57" d="M 863.5,345.5 C 858.854,355.13 852.521,363.463 844.5,370.5C 844.062,370.565 843.728,370.399 843.5,370C 844.381,369.292 845.047,368.458 845.5,367.5C 851.622,361.28 856.788,354.28 861,346.5C 861.671,345.748 862.504,345.414 863.5,345.5 Z"/></g>
<g><path style="opacity:0.996" fill="#f36f8f" d="M 430.5,312.5 C 431.601,313.848 432.601,315.348 433.5,317C 432.376,317.249 431.376,317.749 430.5,318.5C 431.981,319.48 433.315,320.647 434.5,322C 430.146,323.5 429.313,325.667 432,328.5C 433.353,327.315 434.52,325.981 435.5,324.5C 436.086,324.709 436.586,325.043 437,325.5C 437.283,322.258 438.117,321.924 439.5,324.5C 443.127,323.291 443.961,324.291 442,327.5C 441.29,326.027 440.124,325.36 438.5,325.5C 438.343,326.873 438.51,328.207 439,329.5C 440.714,328.075 442.047,328.408 443,330.5C 443.837,328.993 445.004,328.493 446.5,329C 445.833,331 444.5,332.333 442.5,333C 444.333,333.5 445.5,334.667 446,336.5C 446.333,336.167 446.667,335.833 447,335.5C 449.026,336.858 451.193,337.691 453.5,338C 452.117,339.461 452.451,340.294 454.5,340.5C 442.215,353.452 429.548,366.119 416.5,378.5C 408.782,384.711 401.448,391.544 394.5,399C 392.82,399.034 391.32,399.201 390,399.5C 389.667,398.833 389.333,398.167 389,397.5C 388.647,399.074 387.98,400.741 387,402.5C 386.163,404.007 384.996,404.507 383.5,404C 382.167,403 382.167,402 383.5,401C 382.386,399.43 381.053,398.097 379.5,397C 381.585,395.959 383.252,394.459 384.5,392.5C 385.251,393.376 385.751,394.376 386,395.5C 387.688,394.675 387.855,393.675 386.5,392.5C 387.098,391.205 387.598,389.872 388,388.5C 388.333,389.5 388.667,390.5 389,391.5C 390.074,390.382 391.24,389.382 392.5,388.5C 391.975,387.808 391.308,387.308 390.5,387C 390.833,386.667 391.167,386.333 391.5,386C 387.329,387.253 386.662,386.253 389.5,383C 389.167,382 388.833,381 388.5,380C 389.624,379.751 390.624,379.251 391.5,378.5C 390.894,376.291 390.227,374.124 389.5,372C 391.731,371.378 393.565,370.211 395,368.5C 397.76,371.274 400.76,373.608 404,375.5C 404.833,374 406,372.833 407.5,372C 406.551,371.383 405.718,371.549 405,372.5C 403.84,370.203 402.84,370.536 402,373.5C 401.682,371.939 400.849,370.772 399.5,370C 400.167,369.667 400.833,369.333 401.5,369C 400.294,366.291 401.294,364.625 404.5,364C 402.915,363.915 401.582,363.749 400.5,363.5C 401.376,362.749 402.376,362.249 403.5,362C 401.695,361.028 400.028,359.861 398.5,358.5C 398.167,358.667 397.833,358.833 397.5,359C 398.357,359.689 399.023,360.522 399.5,361.5C 397.469,363.404 395.469,363.571 393.5,362C 396.264,360.456 396.097,359.289 393,358.5C 392.667,359.167 392.333,359.833 392,360.5C 391.929,357.769 392.096,355.269 392.5,353C 391.906,352.536 391.239,352.369 390.5,352.5C 403.5,338.833 416.833,325.5 430.5,312.5 Z"/></g>
<g><path style="opacity:0.929" fill="#f15f5e" d="M 513.5,285.5 C 449.752,349.249 385.752,412.582 321.5,475.5C 320.475,475.103 320.308,474.437 321,473.5C 353.205,442.462 385.039,410.795 416.5,378.5C 429.548,366.119 442.215,353.452 454.5,340.5C 473.602,322.899 492.269,304.732 510.5,286C 511.448,285.517 512.448,285.351 513.5,285.5 Z"/></g>
<g><path style="opacity:0.996" fill="#f9758b" d="M 705.5,295.5 C 726.745,316.244 747.911,337.244 769,358.5C 769.383,357.944 769.883,357.611 770.5,357.5C 771.167,357.5 771.5,357.833 771.5,358.5C 770.475,358.897 770.308,359.563 771,360.5C 775.86,365.36 780.694,370.194 785.5,375C 786.5,375.5 787.5,376 788.5,376.5C 801.488,364.345 813.988,351.678 826,338.5C 831.916,329.012 836.416,319.012 839.5,308.5C 839.435,308.938 839.601,309.272 840,309.5C 840.249,308.376 840.749,307.376 841.5,306.5C 842.749,308.475 844.249,308.809 846,307.5C 847.32,309.583 848.654,309.249 850,306.5C 851.193,308.605 852.86,310.272 855,311.5C 855.667,312.833 855.667,314.167 855,315.5C 853.186,316.851 853.519,317.851 856,318.5C 856.471,316.754 857.138,315.087 858,313.5C 858.333,313.833 858.667,314.167 859,314.5C 861.884,313.44 863.717,311.94 864.5,310C 863.975,309.308 863.308,308.808 862.5,308.5C 860.729,309.035 860.396,309.869 861.5,311C 860.365,311.749 859.365,311.583 858.5,310.5C 859.711,307.953 859.711,305.453 858.5,303C 859,302.5 859.5,302 860,301.5C 861.705,302.763 863.372,303.097 865,302.5C 865.47,304.774 866.47,306.774 868,308.5C 868.75,307.874 869.584,307.374 870.5,307C 868.099,306.195 868.266,305.362 871,304.5C 871.663,310.426 872.163,316.093 872.5,321.5C 870.082,328.756 867.082,335.756 863.5,342.5C 863.624,343.107 863.957,343.44 864.5,343.5C 864.672,344.492 864.338,345.158 863.5,345.5C 862.504,345.414 861.671,345.748 861,346.5C 856.788,354.28 851.622,361.28 845.5,367.5C 845.872,364.978 845.039,362.978 843,361.5C 841.913,363.752 840.079,365.085 837.5,365.5C 840.491,369.008 840.158,372.008 836.5,374.5C 835.459,372.009 834.626,372.009 834,374.5C 833.389,372.25 832.056,370.583 830,369.5C 829.667,369.833 829.333,370.167 829,370.5C 827.354,368.945 827.021,367.279 828,365.5C 826.693,366.772 825.193,367.772 823.5,368.5C 824.557,370.766 824.057,372.766 822,374.5C 821.667,374.167 821.333,373.833 821,373.5C 820.275,375.158 819.108,375.658 817.5,375C 818.28,373.927 818.113,372.76 817,371.5C 815.759,374.909 813.593,377.575 810.5,379.5C 811,380.5 811.5,381.5 812,382.5C 815.504,378.441 816.337,379.107 814.5,384.5C 812.799,384.034 811.299,384.034 810,384.5C 809.167,383.5 808.333,382.5 807.5,381.5C 805.541,382.748 804.041,384.415 803,386.5C 802.667,385.167 802.333,383.833 802,382.5C 799.514,381.895 798.014,380.895 797.5,379.5C 795.279,380.116 794.612,381.283 795.5,383C 793.009,383.626 793.009,384.459 795.5,385.5C 793.077,388.206 791.91,387.539 792,383.5C 788.215,383.8 784.548,382.8 781,380.5C 780.667,380.833 780.333,381.167 780,381.5C 779.316,380.216 779.483,379.049 780.5,378C 779.269,376.033 778.269,376.199 777.5,378.5C 778.052,380.003 778.052,381.669 777.5,383.5C 774.402,383.413 774.068,383.913 776.5,385C 776.412,386.578 776.412,388.078 776.5,389.5C 775.386,386.596 773.386,384.596 770.5,383.5C 769.707,383.931 768.873,384.265 768,384.5C 766.989,384.108 766.489,383.441 766.5,382.5C 765.536,385.083 764.202,385.583 762.5,384C 763.833,383.333 764.833,382.333 765.5,381C 762.994,377.944 762.994,374.777 765.5,371.5C 764.675,370.614 763.675,370.281 762.5,370.5C 762.657,371.873 762.49,373.207 762,374.5C 760.284,373.448 759.284,374.114 759,376.5C 758.683,374.699 758.016,374.366 757,375.5C 756.25,374.874 755.416,374.374 754.5,374C 755.696,373.346 755.696,372.846 754.5,372.5C 753.459,374.991 752.626,374.991 752,372.5C 749.867,374.138 747.367,374.971 744.5,375C 744.554,376.351 744.054,377.518 743,378.5C 741.527,378.097 740.194,377.43 739,376.5C 737.383,377.536 737.216,378.703 738.5,380C 737.333,381.167 736.167,382.333 735,383.5C 735,382.167 735,380.833 735,379.5C 733.315,381.988 731.981,381.655 731,378.5C 730.331,381.028 729.498,381.028 728.5,378.5C 730.162,377.673 731.495,376.507 732.5,375C 729.753,375.65 727.086,376.817 724.5,378.5C 723.614,377.675 723.281,376.675 723.5,375.5C 722.178,375.67 721.011,375.337 720,374.5C 719.667,375.167 719.333,375.833 719,376.5C 717.86,373.472 718.694,371.305 721.5,370C 719.63,368.436 717.63,368.436 715.5,370C 717.007,370.837 717.507,372.004 717,373.5C 715.581,372.54 714.081,371.707 712.5,371C 713.252,370.329 713.586,369.496 713.5,368.5C 715.127,366.37 716.96,364.37 719,362.5C 719.667,361.5 719.667,360.5 719,359.5C 695.833,336.333 672.667,313.167 649.5,290C 648.563,289.308 647.897,289.475 647.5,290.5C 646.833,290.833 646.167,291.167 645.5,291.5C 645.103,290.475 644.437,290.308 643.5,291C 634.349,301.65 624.349,311.484 613.5,320.5C 611.284,319.97 609.118,320.637 607,322.5C 606.097,321.299 604.931,320.465 603.5,320C 605.402,319.801 606.902,318.967 608,317.5C 608.308,318.308 608.808,318.975 609.5,319.5C 614.105,317.614 614.438,315.281 610.5,312.5C 612.139,311.084 612.973,309.417 613,307.5C 612.667,307.833 612.333,308.167 612,308.5C 609.677,304.578 609.177,304.912 610.5,309.5C 610.192,310.308 609.692,310.975 609,311.5C 608.167,309.333 606.667,307.833 604.5,307C 606.847,305.809 607.68,303.976 607,301.5C 606.581,302.672 605.915,303.672 605,304.5C 603.887,303.289 602.72,303.289 601.5,304.5C 600.522,304.023 599.689,303.357 599,302.5C 598.333,303.167 598.333,303.833 599,304.5C 600.298,305.56 601.465,306.726 602.5,308C 602.056,309.762 601.556,309.595 601,307.5C 599.43,311.075 597.43,314.408 595,317.5C 594.692,316.692 594.192,316.025 593.5,315.5C 592.23,316.562 591.063,317.562 590,318.5C 589.28,316.888 589.446,315.388 590.5,314C 588.939,313.059 587.605,311.892 586.5,310.5C 587.167,309.833 587.833,309.167 588.5,308.5C 582.094,307.331 581.927,305.665 588,303.5C 588.333,303.833 588.667,304.167 589,304.5C 589.374,303.584 589.874,302.75 590.5,302C 589.874,301.25 589.374,300.416 589,299.5C 588.047,301.373 586.88,301.706 585.5,300.5C 591.103,294.395 596.936,288.395 603,282.5C 603.561,283.022 604.228,283.355 605,283.5C 606.663,282.01 608.33,281.344 610,281.5C 610.658,279.892 610.158,278.725 608.5,278C 609.126,277.25 609.626,276.416 610,275.5C 610.667,276.833 611.333,278.167 612,279.5C 612.71,278.027 613.876,277.36 615.5,277.5C 615.281,276.325 615.614,275.325 616.5,274.5C 618.444,275.189 620.444,275.689 622.5,276C 619.953,276.552 617.953,277.886 616.5,280C 618.061,280.318 619.228,281.151 620,282.5C 621,281.833 622,281.167 623,280.5C 623.249,281.624 623.749,282.624 624.5,283.5C 626.679,281.9 626.346,280.4 623.5,279C 624.494,275.159 622.827,273.159 618.5,273C 619,272.5 619.5,272 620,271.5C 621.84,272.833 622.34,272.666 621.5,271C 622.672,270.581 623.672,269.915 624.5,269C 624.056,267.467 623.723,265.967 623.5,264.5C 626.277,264.469 628.944,263.969 631.5,263C 631.167,262.667 630.833,262.333 630.5,262C 632.131,260.164 632.798,260.664 632.5,263.5C 635.88,263.179 636.713,264.179 635,266.5C 634.577,265.044 633.744,264.544 632.5,265C 633.723,267.052 634.723,269.219 635.5,271.5C 636.624,266.279 637.458,266.279 638,271.5C 638.251,269.567 638.751,267.734 639.5,266C 640,265.833 640.5,265.667 641,265.5C 644.388,267.991 644.221,268.657 640.5,267.5C 640.167,268 639.833,268.5 639.5,269C 641.825,270.452 641.825,272.119 639.5,274C 640.187,276.232 640.521,278.398 640.5,280.5C 641.427,278.887 642.261,277.221 643,275.5C 643.333,276.167 643.667,276.833 644,277.5C 644.667,276.167 644.667,274.833 644,273.5C 643.086,274.654 642.253,274.487 641.5,273C 645.735,269.574 648.901,265.408 651,260.5C 652.901,263.687 652.067,266.187 648.5,268C 649.126,268.75 649.626,269.584 650,270.5C 650.667,269.167 651.333,269.167 652,270.5C 652.333,271.5 652.667,272.5 653,273.5C 653.333,273.167 653.667,272.833 654,272.5C 654.684,273.784 654.517,274.951 653.5,276C 654.624,276.249 655.624,276.749 656.5,277.5C 655.145,278.675 655.312,279.675 657,280.5C 658.098,279.033 659.598,278.199 661.5,278C 660.483,276.951 660.316,275.784 661,274.5C 662.044,275.623 662.71,276.956 663,278.5C 664.247,276.119 664.58,276.453 664,279.5C 662.745,280.211 661.579,281.044 660.5,282C 662.556,282.311 664.556,282.811 666.5,283.5C 667.167,282.833 667.833,282.167 668.5,281.5C 668.833,281.833 669.167,282.167 669.5,282.5C 668.503,285.312 669.336,287.646 672,289.5C 672.333,289.167 672.667,288.833 673,288.5C 673.333,289.5 673.667,290.5 674,291.5C 674.914,290.346 675.747,290.513 676.5,292C 672.377,295.027 672.543,297.86 677,300.5C 678.957,299.116 679.957,299.783 680,302.5C 683.151,300.948 683.318,299.115 680.5,297C 682.178,297.112 683.845,297.612 685.5,298.5C 686.167,298.333 686.833,298.167 687.5,298C 685.122,297.026 685.456,296.359 688.5,296C 686.866,295.506 685.199,295.34 683.5,295.5C 683.67,294.178 683.337,293.011 682.5,292C 686.272,291.389 686.272,290.389 682.5,289C 684.464,287.206 685.964,287.706 687,290.5C 687.333,289.833 687.667,289.167 688,288.5C 689.5,290 691,291.5 692.5,293C 692.167,293.333 691.833,293.667 691.5,294C 695.289,293.454 698.289,294.954 700.5,298.5C 702.36,297.74 704.027,296.74 705.5,295.5 Z"/></g>
<g><path style="opacity:0.933" fill="#fa6d61" d="M 713.5,368.5 C 706.562,374.937 699.729,381.603 693,388.5C 692.536,387.906 692.369,387.239 692.5,386.5C 701.352,378.148 710.019,369.648 718.5,361C 694.354,338.021 670.687,314.521 647.5,290.5C 647.897,289.475 648.563,289.308 649.5,290C 672.667,313.167 695.833,336.333 719,359.5C 719.667,360.5 719.667,361.5 719,362.5C 716.96,364.37 715.127,366.37 713.5,368.5 Z"/></g>
<g><path style="opacity:0.561" fill="#f66655" d="M 645.5,291.5 C 601.328,335.337 556.995,379.337 512.5,423.5C 512.167,423.5 511.833,423.5 511.5,423.5C 518.5,416.167 525.5,408.833 532.5,401.5C 559.833,374.833 586.833,347.833 613.5,320.5C 624.349,311.484 634.349,301.65 643.5,291C 644.437,290.308 645.103,290.475 645.5,291.5 Z"/></g>
<g><path style="opacity:0.902" fill="#f76667" d="M 504.5,376.5 C 504.938,376.435 505.272,376.601 505.5,377C 504.619,377.708 503.953,378.542 503.5,379.5C 497.175,386.325 490.675,392.992 484,399.5C 483.536,398.906 483.369,398.239 483.5,397.5C 490.473,390.527 497.473,383.527 504.5,376.5 Z"/></g>
<g><path style="opacity:0.998" fill="#f8728a" d="M 845.5,367.5 C 845.047,368.458 844.381,369.292 843.5,370C 843.728,370.399 844.062,370.565 844.5,370.5C 844.573,372.027 843.906,373.027 842.5,373.5C 842.103,372.475 841.437,372.308 840.5,373C 837,376.5 833.5,380 830,383.5C 797.814,418.278 764.981,452.278 731.5,485.5C 730.883,485.389 730.383,485.056 730,484.5C 728.815,486.844 726.982,487.677 724.5,487C 725.308,486.692 725.975,486.192 726.5,485.5C 725.516,483.52 724.183,481.853 722.5,480.5C 725.458,478.044 728.291,475.378 731,472.5C 732.297,473.784 733.464,473.617 734.5,472C 733.333,471.5 732.5,470.667 732,469.5C 731.667,469.833 731.333,470.167 731,470.5C 730.691,469.234 730.191,468.067 729.5,467C 732.167,466.333 732.167,465.667 729.5,465C 731.891,463.691 731.891,462.691 729.5,462C 732.187,461.463 734.687,461.963 737,463.5C 736.852,462.175 737.018,461.008 737.5,460C 736.5,459.667 735.5,459.333 734.5,459C 733.167,458.333 733.167,457.667 734.5,457C 732.82,456.966 731.32,456.799 730,456.5C 729.5,457 729,457.5 728.5,458C 729.938,458.219 731.271,458.719 732.5,459.5C 730.525,460.578 728.692,460.245 727,458.5C 728.241,459.999 728.741,461.665 728.5,463.5C 727.723,465.539 726.557,466.205 725,465.5C 724.667,466.5 724.333,467.5 724,468.5C 723.591,463.027 721.258,461.694 717,464.5C 715.164,462.869 715.664,462.202 718.5,462.5C 718.509,460.692 718.009,459.025 717,457.5C 715.915,459.657 714.749,459.824 713.5,458C 715.506,455.566 717.34,455.399 719,457.5C 720.5,456.667 721.667,455.5 722.5,454C 720.574,453.578 719.574,452.411 719.5,450.5C 733.329,435.165 747.829,420.165 763,405.5C 763.688,404.668 763.521,404.002 762.5,403.5C 761.893,403.624 761.56,403.957 761.5,404.5C 760.5,404.167 759.833,403.5 759.5,402.5C 760.239,402.631 760.906,402.464 761.5,402C 756.635,396.8 751.468,391.967 746,387.5C 728.528,403.971 711.362,420.804 694.5,438C 695.056,438.383 695.389,438.883 695.5,439.5C 695.5,440.167 695.167,440.5 694.5,440.5C 694.103,439.475 693.437,439.308 692.5,440C 684.937,447.395 677.603,454.895 670.5,462.5C 670.631,461.761 670.464,461.094 670,460.5C 668.667,461.833 667.333,463.167 666,464.5C 664.667,463.833 663.667,462.833 663,461.5C 662.667,461.833 662.333,462.167 662,462.5C 661.333,461.5 661.333,460.5 662,459.5C 662.333,459.833 662.667,460.167 663,460.5C 663.273,458.899 663.773,457.399 664.5,456C 663.285,453.904 662.451,454.071 662,456.5C 661.849,453.44 660.515,451.107 658,449.5C 657.667,449.833 657.333,450.167 657,450.5C 656.072,448.693 654.906,447.026 653.5,445.5C 654.491,443.677 655.824,442.177 657.5,441C 657,440.5 656.5,440 656,439.5C 653.489,441.425 651.322,443.758 649.5,446.5C 651.373,445.911 653.04,446.578 654.5,448.5C 654.154,449.696 653.654,449.696 653,448.5C 651.161,451.161 650.327,453.827 650.5,456.5C 649.833,455.833 649.167,455.167 648.5,454.5C 646.93,454.694 645.43,454.694 644,454.5C 643.333,450.5 642.667,450.5 642,454.5C 641.167,453.5 640.333,452.5 639.5,451.5C 638.914,451.709 638.414,452.043 638,452.5C 636.824,450.804 635.657,449.138 634.5,447.5C 653.186,428.314 672.019,409.314 691,390.5C 691.483,389.552 691.649,388.552 691.5,387.5C 691.5,386.833 691.833,386.5 692.5,386.5C 692.369,387.239 692.536,387.906 693,388.5C 699.729,381.603 706.562,374.937 713.5,368.5C 713.586,369.496 713.252,370.329 712.5,371C 714.081,371.707 715.581,372.54 717,373.5C 717.507,372.004 717.007,370.837 715.5,370C 717.63,368.436 719.63,368.436 721.5,370C 718.694,371.305 717.86,373.472 719,376.5C 719.333,375.833 719.667,375.167 720,374.5C 721.011,375.337 722.178,375.67 723.5,375.5C 723.281,376.675 723.614,377.675 724.5,378.5C 727.086,376.817 729.753,375.65 732.5,375C 731.495,376.507 730.162,377.673 728.5,378.5C 729.498,381.028 730.331,381.028 731,378.5C 731.981,381.655 733.315,381.988 735,379.5C 735,380.833 735,382.167 735,383.5C 736.167,382.333 737.333,381.167 738.5,380C 737.216,378.703 737.383,377.536 739,376.5C 740.194,377.43 741.527,378.097 743,378.5C 744.054,377.518 744.554,376.351 744.5,375C 747.367,374.971 749.867,374.138 752,372.5C 752.626,374.991 753.459,374.991 754.5,372.5C 755.696,372.846 755.696,373.346 754.5,374C 755.416,374.374 756.25,374.874 757,375.5C 758.016,374.366 758.683,374.699 759,376.5C 759.284,374.114 760.284,373.448 762,374.5C 762.49,373.207 762.657,371.873 762.5,370.5C 763.675,370.281 764.675,370.614 765.5,371.5C 762.994,374.777 762.994,377.944 765.5,381C 764.833,382.333 763.833,383.333 762.5,384C 764.202,385.583 765.536,385.083 766.5,382.5C 766.489,383.441 766.989,384.108 768,384.5C 768.873,384.265 769.707,383.931 770.5,383.5C 773.386,384.596 775.386,386.596 776.5,389.5C 776.412,388.078 776.412,386.578 776.5,385C 774.068,383.913 774.402,383.413 777.5,383.5C 778.052,381.669 778.052,380.003 777.5,378.5C 778.269,376.199 779.269,376.033 780.5,378C 779.483,379.049 779.316,380.216 780,381.5C 780.333,381.167 780.667,380.833 781,380.5C 784.548,382.8 788.215,383.8 792,383.5C 791.91,387.539 793.077,388.206 795.5,385.5C 793.009,384.459 793.009,383.626 795.5,383C 794.612,381.283 795.279,380.116 797.5,379.5C 798.014,380.895 799.514,381.895 802,382.5C 802.333,383.833 802.667,385.167 803,386.5C 804.041,384.415 805.541,382.748 807.5,381.5C 808.333,382.5 809.167,383.5 810,384.5C 811.299,384.034 812.799,384.034 814.5,384.5C 816.337,379.107 815.504,378.441 812,382.5C 811.5,381.5 811,380.5 810.5,379.5C 813.593,377.575 815.759,374.909 817,371.5C 818.113,372.76 818.28,373.927 817.5,375C 819.108,375.658 820.275,375.158 821,373.5C 821.333,373.833 821.667,374.167 822,374.5C 824.057,372.766 824.557,370.766 823.5,368.5C 825.193,367.772 826.693,366.772 828,365.5C 827.021,367.279 827.354,368.945 829,370.5C 829.333,370.167 829.667,369.833 830,369.5C 832.056,370.583 833.389,372.25 834,374.5C 834.626,372.009 835.459,372.009 836.5,374.5C 840.158,372.008 840.491,369.008 837.5,365.5C 840.079,365.085 841.913,363.752 843,361.5C 845.039,362.978 845.872,364.978 845.5,367.5 Z"/></g>
<g><path style="opacity:0.988" fill="#f7685e" d="M 759.5,402.5 C 754.869,398.37 750.369,394.037 746,389.5C 729.137,406.532 712.304,423.198 695.5,439.5C 695.389,438.883 695.056,438.383 694.5,438C 711.362,420.804 728.528,403.971 746,387.5C 751.468,391.967 756.635,396.8 761.5,402C 760.906,402.464 760.239,402.631 759.5,402.5 Z"/></g>
<g><path style="opacity:0.812" fill="#f05f67" d="M 324.5,415.5 C 325.239,415.369 325.906,415.536 326.5,416C 319,423.5 311.5,431 304,438.5C 303.536,437.906 303.369,437.239 303.5,436.5C 310.728,429.694 317.728,422.694 324.5,415.5 Z"/></g>
<g><path style="opacity:0.997" fill="#f36d8e" d="M 503.5,379.5 C 504.376,379.369 505.043,379.702 505.5,380.5C 504.289,381.72 504.289,382.887 505.5,384C 504.551,384.617 503.718,384.451 503,383.5C 502.5,384.667 501.667,385.5 500.5,386C 501.34,387.666 500.84,387.833 499,386.5C 498.19,388.306 497.024,389.806 495.5,391C 495.82,392.653 496.82,393.653 498.5,394C 497.692,394.308 497.025,394.808 496.5,395.5C 497.868,396.594 499.035,396.26 500,394.5C 501.667,397.167 503.333,397.167 505,394.5C 505.667,396.5 506.333,398.5 507,400.5C 508.368,398.973 508.868,397.473 508.5,396C 505.007,394.473 504.507,392.973 507,391.5C 507.57,394.844 508.736,395.177 510.5,392.5C 512.35,393.242 513.016,394.242 512.5,395.5C 514.432,394.855 515.599,393.521 516,391.5C 517.113,392.76 517.28,393.927 516.5,395C 518.481,395.605 518.815,396.605 517.5,398C 521.188,398.413 524.354,397.246 527,394.5C 527.938,397.598 529.772,399.931 532.5,401.5C 525.5,408.833 518.5,416.167 511.5,423.5C 491.086,443.582 470.753,463.582 450.5,483.5C 449.475,480.304 447.808,477.471 445.5,475C 446.009,473.831 446.842,472.998 448,472.5C 449.241,474.421 450.741,474.754 452.5,473.5C 449.917,471.083 447.917,468.249 446.5,465C 448.874,464.152 450.874,462.819 452.5,461C 450.557,459.166 450.224,457.166 451.5,455C 450.313,453.981 449.313,452.814 448.5,451.5C 450.782,450.1 452.282,450.766 453,453.5C 453.317,451.699 453.984,451.366 455,452.5C 455.5,452 456,451.5 456.5,451C 455.062,450.781 453.729,450.281 452.5,449.5C 453.5,446.833 454.5,446.833 455.5,449.5C 456.5,449 457.5,448.5 458.5,448C 457.304,447.346 457.304,446.846 458.5,446.5C 459.478,446.977 460.311,447.643 461,448.5C 461.658,446.892 461.158,445.725 459.5,445C 460.167,444.667 460.833,444.333 461.5,444C 460.167,443.333 460.167,442.667 461.5,442C 460.256,441.544 459.423,442.044 459,443.5C 458.5,442.333 457.667,441.5 456.5,441C 457.362,438.266 458.195,438.099 459,440.5C 459.167,440 459.333,439.5 459.5,439C 458.711,437.374 457.711,435.874 456.5,434.5C 456.808,433.692 457.308,433.025 458,432.5C 459.141,434.609 460.641,436.442 462.5,438C 459.736,439.544 459.903,440.711 463,441.5C 463.667,440.167 464.333,438.833 465,437.5C 465.777,439.701 466.944,439.701 468.5,437.5C 465.412,436.921 462.745,435.587 460.5,433.5C 460.846,432.304 461.346,432.304 462,433.5C 462.01,430.6 460.677,429.934 458,431.5C 457.148,430.429 456.315,429.429 455.5,428.5C 464.298,419.202 473.298,410.035 482.5,401C 481.906,400.536 481.239,400.369 480.5,400.5C 481.167,399.167 482.167,398.167 483.5,397.5C 483.369,398.239 483.536,398.906 484,399.5C 490.675,392.992 497.175,386.325 503.5,379.5 Z"/></g>
<g><path style="opacity:0.953" fill="#f06059" d="M 842.5,373.5 C 746.339,474.997 648.339,574.997 548.5,673.5C 548.389,672.883 548.056,672.383 547.5,672C 560.702,658.965 573.702,645.798 586.5,632.5C 616.167,603.5 645.5,574.167 674.5,544.5C 693.444,525.542 712.444,505.876 731.5,485.5C 764.981,452.278 797.814,418.278 830,383.5C 833.5,380 837,376.5 840.5,373C 841.437,372.308 842.103,372.475 842.5,373.5 Z"/></g>
<g><path style="opacity:0.997" fill="#f56e8b" d="M 670.5,462.5 C 667.369,465.129 664.369,467.962 661.5,471C 662.056,471.383 662.389,471.883 662.5,472.5C 662.5,473.167 662.167,473.5 661.5,473.5C 661.103,472.475 660.437,472.308 659.5,473C 652.321,480.679 644.987,488.179 637.5,495.5C 637.624,496.107 637.957,496.44 638.5,496.5C 638.167,497.5 637.5,498.167 636.5,498.5C 636.103,497.475 635.437,497.308 634.5,498C 629.293,503.41 623.96,508.577 618.5,513.5C 617.844,512.722 617.011,512.056 616,511.5C 614.85,512.424 613.85,512.424 613,511.5C 611.959,513.585 610.459,515.252 608.5,516.5C 607.229,513.567 605.562,510.901 603.5,508.5C 604.661,506.776 604.495,505.11 603,503.5C 602.252,505.332 601.252,506.999 600,508.5C 597.866,507.695 596.033,508.362 594.5,510.5C 595.326,511.451 595.492,512.451 595,513.5C 593.491,512.91 591.991,512.244 590.5,511.5C 591.498,508.972 592.331,508.972 593,511.5C 593.711,509.633 593.211,508.133 591.5,507C 594.167,505.667 594.167,504.333 591.5,503C 591.833,502.667 592.167,502.333 592.5,502C 591.167,501 589.833,500 588.5,499C 589.253,497.513 590.086,497.346 591,498.5C 591.333,496.167 591.667,493.833 592,491.5C 593.667,489.833 595.333,488.167 597,486.5C 598.085,488.657 599.251,488.824 600.5,487C 600.746,485.94 600.746,484.773 600.5,483.5C 602.605,481.408 604.272,479.075 605.5,476.5C 614.833,466.5 624.5,456.833 634.5,447.5C 635.657,449.138 636.824,450.804 638,452.5C 638.414,452.043 638.914,451.709 639.5,451.5C 640.333,452.5 641.167,453.5 642,454.5C 642.667,450.5 643.333,450.5 644,454.5C 645.43,454.694 646.93,454.694 648.5,454.5C 649.167,455.167 649.833,455.833 650.5,456.5C 650.327,453.827 651.161,451.161 653,448.5C 653.654,449.696 654.154,449.696 654.5,448.5C 653.04,446.578 651.373,445.911 649.5,446.5C 651.322,443.758 653.489,441.425 656,439.5C 656.5,440 657,440.5 657.5,441C 655.824,442.177 654.491,443.677 653.5,445.5C 654.906,447.026 656.072,448.693 657,450.5C 657.333,450.167 657.667,449.833 658,449.5C 660.515,451.107 661.849,453.44 662,456.5C 662.451,454.071 663.285,453.904 664.5,456C 663.773,457.399 663.273,458.899 663,460.5C 662.667,460.167 662.333,459.833 662,459.5C 661.333,460.5 661.333,461.5 662,462.5C 662.333,462.167 662.667,461.833 663,461.5C 663.667,462.833 664.667,463.833 666,464.5C 667.333,463.167 668.667,461.833 670,460.5C 670.464,461.094 670.631,461.761 670.5,462.5 Z"/></g>
<g><path style="opacity:0.996" fill="#ef6a91" d="M 390.5,352.5 C 391.239,352.369 391.906,352.536 392.5,353C 392.096,355.269 391.929,357.769 392,360.5C 392.333,359.833 392.667,359.167 393,358.5C 396.097,359.289 396.264,360.456 393.5,362C 395.469,363.571 397.469,363.404 399.5,361.5C 399.023,360.522 398.357,359.689 397.5,359C 397.833,358.833 398.167,358.667 398.5,358.5C 400.028,359.861 401.695,361.028 403.5,362C 402.376,362.249 401.376,362.749 400.5,363.5C 401.582,363.749 402.915,363.915 404.5,364C 401.294,364.625 400.294,366.291 401.5,369C 400.833,369.333 400.167,369.667 399.5,370C 400.849,370.772 401.682,371.939 402,373.5C 402.84,370.536 403.84,370.203 405,372.5C 405.718,371.549 406.551,371.383 407.5,372C 406,372.833 404.833,374 404,375.5C 400.76,373.608 397.76,371.274 395,368.5C 393.565,370.211 391.731,371.378 389.5,372C 390.227,374.124 390.894,376.291 391.5,378.5C 390.624,379.251 389.624,379.751 388.5,380C 388.833,381 389.167,382 389.5,383C 386.662,386.253 387.329,387.253 391.5,386C 391.167,386.333 390.833,386.667 390.5,387C 391.308,387.308 391.975,387.808 392.5,388.5C 391.24,389.382 390.074,390.382 389,391.5C 388.667,390.5 388.333,389.5 388,388.5C 387.598,389.872 387.098,391.205 386.5,392.5C 387.855,393.675 387.688,394.675 386,395.5C 385.751,394.376 385.251,393.376 384.5,392.5C 383.252,394.459 381.585,395.959 379.5,397C 381.053,398.097 382.386,399.43 383.5,401C 382.167,402 382.167,403 383.5,404C 384.996,404.507 386.163,404.007 387,402.5C 387.98,400.741 388.647,399.074 389,397.5C 389.333,398.167 389.667,398.833 390,399.5C 391.32,399.201 392.82,399.034 394.5,399C 401.448,391.544 408.782,384.711 416.5,378.5C 385.039,410.795 353.205,442.462 321,473.5C 320.308,474.437 320.475,475.103 321.5,475.5C 321.167,476.5 320.5,477.167 319.5,477.5C 319.565,477.062 319.399,476.728 319,476.5C 305,489.667 291.167,503 277.5,516.5C 275.128,515.086 272.961,515.42 271,517.5C 270.544,516.256 271.044,515.423 272.5,515C 271.328,514.581 270.328,513.915 269.5,513C 270.667,512.5 271.5,511.667 272,510.5C 273.333,510.5 274.667,510.5 276,510.5C 276.333,511.167 276.667,511.833 277,512.5C 277.465,511.069 278.299,509.903 279.5,509C 274.956,508.978 273.456,506.812 275,502.5C 275.089,505.849 276.256,506.349 278.5,504C 277.833,503.667 277.167,503.333 276.5,503C 277.766,502.691 278.933,502.191 280,501.5C 280.333,502.167 280.667,502.833 281,503.5C 281.85,502.576 282.85,502.576 284,503.5C 287.556,500.782 287.223,500.115 283,501.5C 280.503,501.182 278.003,500.016 275.5,498C 277.891,496.691 277.891,495.691 275.5,495C 277.301,494.683 277.634,494.016 276.5,493C 277.624,492.751 278.624,492.251 279.5,491.5C 279.154,490.304 278.654,490.304 278,491.5C 276.148,489.77 276.314,488.604 278.5,488C 275.701,487.561 274.701,486.228 275.5,484C 272.833,483.333 272.833,482.667 275.5,482C 274.549,481.282 274.383,480.449 275,479.5C 275.718,480.451 276.551,480.617 277.5,480C 272.331,475.475 272.498,473.975 278,475.5C 278.456,474.256 277.956,473.423 276.5,473C 277.833,472.333 279.167,471.667 280.5,471C 278.385,470.576 277.552,469.409 278,467.5C 280.173,470.277 280.673,470.11 279.5,467C 282.526,463.972 285.192,460.472 287.5,456.5C 291.981,450.578 296.981,445.078 302.5,440C 301.906,439.536 301.239,439.369 300.5,439.5C 301.5,438.5 302.5,437.5 303.5,436.5C 303.369,437.239 303.536,437.906 304,438.5C 311.5,431 319,423.5 326.5,416C 325.906,415.536 325.239,415.369 324.5,415.5C 325.167,414.167 326.167,413.167 327.5,412.5C 327.369,413.239 327.536,413.906 328,414.5C 348.755,393.577 369.589,372.911 390.5,352.5 Z"/></g>
<g><path style="opacity:0.961" fill="#f76a67" d="M 691.5,387.5 C 691.649,388.552 691.483,389.552 691,390.5C 672.019,409.314 653.186,428.314 634.5,447.5C 624.5,456.833 614.833,466.5 605.5,476.5C 588.14,493.527 570.807,510.527 553.5,527.5C 553.5,526.833 553.5,526.167 553.5,525.5C 598.95,479.383 644.95,433.383 691.5,387.5 Z"/></g>
<g><path style="opacity:0.89" fill="#f6655f" d="M 694.5,440.5 C 683.5,450.833 672.833,461.5 662.5,472.5C 662.389,471.883 662.056,471.383 661.5,471C 664.369,467.962 667.369,465.129 670.5,462.5C 677.603,454.895 684.937,447.395 692.5,440C 693.437,439.308 694.103,439.475 694.5,440.5 Z"/></g>
<g><path style="opacity:0.997" fill="#f46c8b" d="M 719.5,450.5 C 719.574,452.411 720.574,453.578 722.5,454C 721.667,455.5 720.5,456.667 719,457.5C 717.34,455.399 715.506,455.566 713.5,458C 714.749,459.824 715.915,459.657 717,457.5C 718.009,459.025 718.509,460.692 718.5,462.5C 715.664,462.202 715.164,462.869 717,464.5C 721.258,461.694 723.591,463.027 724,468.5C 724.333,467.5 724.667,466.5 725,465.5C 726.557,466.205 727.723,465.539 728.5,463.5C 728.741,461.665 728.241,459.999 727,458.5C 728.692,460.245 730.525,460.578 732.5,459.5C 731.271,458.719 729.938,458.219 728.5,458C 729,457.5 729.5,457 730,456.5C 731.32,456.799 732.82,456.966 734.5,457C 733.167,457.667 733.167,458.333 734.5,459C 735.5,459.333 736.5,459.667 737.5,460C 737.018,461.008 736.852,462.175 737,463.5C 734.687,461.963 732.187,461.463 729.5,462C 731.891,462.691 731.891,463.691 729.5,465C 732.167,465.667 732.167,466.333 729.5,467C 730.191,468.067 730.691,469.234 731,470.5C 731.333,470.167 731.667,469.833 732,469.5C 732.5,470.667 733.333,471.5 734.5,472C 733.464,473.617 732.297,473.784 731,472.5C 728.291,475.378 725.458,478.044 722.5,480.5C 724.183,481.853 725.516,483.52 726.5,485.5C 725.975,486.192 725.308,486.692 724.5,487C 726.982,487.677 728.815,486.844 730,484.5C 730.383,485.056 730.883,485.389 731.5,485.5C 712.444,505.876 693.444,525.542 674.5,544.5C 673.469,543.751 672.302,543.085 671,542.5C 670.947,544.74 670.114,546.907 668.5,549C 667.88,547.745 666.213,547.412 663.5,548C 664.167,548.333 664.833,548.667 665.5,549C 664.176,550.872 662.676,551.705 661,551.5C 660.667,550.833 660.333,550.167 660,549.5C 658.16,550.833 657.66,550.666 658.5,549C 658,548.5 657.5,548 657,547.5C 654.131,546.963 651.131,546.963 648,547.5C 646.312,544.295 644.312,543.961 642,546.5C 642.195,544.874 642.195,543.207 642,541.5C 640.667,543.5 639.333,545.5 638,547.5C 637.667,546.5 637.333,545.5 637,544.5C 636.167,546.667 634.667,548.167 632.5,549C 634.878,549.974 634.544,550.641 631.5,551C 629.981,552.351 628.648,553.851 627.5,555.5C 624.88,553.447 622.547,551.78 620.5,550.5C 629.743,540.755 639.243,531.089 649,521.5C 649.464,520.906 649.631,520.239 649.5,519.5C 650.239,519.631 650.906,519.464 651.5,519C 674.395,496.272 697.062,473.438 719.5,450.5 Z"/></g>
<g><path style="opacity:0.997" fill="#ea6691" d="M 287.5,456.5 C 285.192,460.472 282.526,463.972 279.5,467C 280.673,470.11 280.173,470.277 278,467.5C 277.552,469.409 278.385,470.576 280.5,471C 279.167,471.667 277.833,472.333 276.5,473C 277.956,473.423 278.456,474.256 278,475.5C 272.498,473.975 272.331,475.475 277.5,480C 276.551,480.617 275.718,480.451 275,479.5C 274.383,480.449 274.549,481.282 275.5,482C 272.833,482.667 272.833,483.333 275.5,484C 274.701,486.228 275.701,487.561 278.5,488C 276.314,488.604 276.148,489.77 278,491.5C 278.654,490.304 279.154,490.304 279.5,491.5C 278.624,492.251 277.624,492.751 276.5,493C 277.634,494.016 277.301,494.683 275.5,495C 277.891,495.691 277.891,496.691 275.5,498C 278.003,500.016 280.503,501.182 283,501.5C 287.223,500.115 287.556,500.782 284,503.5C 282.85,502.576 281.85,502.576 281,503.5C 280.667,502.833 280.333,502.167 280,501.5C 278.933,502.191 277.766,502.691 276.5,503C 277.167,503.333 277.833,503.667 278.5,504C 276.256,506.349 275.089,505.849 275,502.5C 273.456,506.812 274.956,508.978 279.5,509C 278.299,509.903 277.465,511.069 277,512.5C 276.667,511.833 276.333,511.167 276,510.5C 274.667,510.5 273.333,510.5 272,510.5C 271.5,511.667 270.667,512.5 269.5,513C 270.328,513.915 271.328,514.581 272.5,515C 271.044,515.423 270.544,516.256 271,517.5C 272.961,515.42 275.128,515.086 277.5,516.5C 264.202,530.299 250.702,543.965 237,557.5C 232.928,562.477 229.762,567.977 227.5,574C 227.57,574.765 227.903,575.265 228.5,575.5C 234.167,577.5 239.833,579.5 245.5,581.5C 244.262,581.81 244.262,582.31 245.5,583C 258.822,587.331 272.155,591.665 285.5,596C 287.913,596.484 290.246,596.15 292.5,595C 321.734,564.662 351.067,534.495 380.5,504.5C 377.239,509.303 373.072,513.97 368,518.5C 368.124,522.154 366.624,525.32 363.5,528C 360.456,528.359 360.122,529.026 362.5,530C 361.672,530.915 360.672,531.581 359.5,532C 360.5,532.333 361.5,532.667 362.5,533C 360.752,533.08 359.085,533.913 357.5,535.5C 357.977,536.478 358.643,537.311 359.5,538C 356.833,538.667 356.833,539.333 359.5,540C 357.833,540.667 356.167,540.667 354.5,540C 355.428,539.612 356.095,538.945 356.5,538C 356,536.5 355.5,535 355,533.5C 354.299,535.762 353.132,536.762 351.5,536.5C 353.991,537.541 353.991,538.374 351.5,539C 352.308,539.308 352.975,539.808 353.5,540.5C 352.066,541.23 350.9,542.23 350,543.5C 349.667,542.5 349.333,541.5 349,540.5C 348.781,541.938 348.281,543.271 347.5,544.5C 346.137,543.121 345.137,543.287 344.5,545C 344.896,546.897 345.896,548.397 347.5,549.5C 344.281,551.298 344.114,553.632 347,556.5C 349.063,554.439 350.73,552.106 352,549.5C 354.166,551.121 356.666,551.955 359.5,552C 357.595,552.826 357.261,553.993 358.5,555.5C 359.799,554.91 360.632,553.91 361,552.5C 362.236,554.307 362.57,556.307 362,558.5C 363.036,555.706 364.536,555.206 366.5,557C 365.72,558.073 365.887,559.24 367,560.5C 368.368,559.007 368.535,557.507 367.5,556C 368.167,555.333 368.833,555.333 369.5,556C 369.954,558.095 370.954,560.261 372.5,562.5C 354.4,580.502 336.234,598.835 318,617.5C 312.681,628.826 312.014,640.492 316,652.5C 317.33,661.154 320.33,669.154 325,676.5C 326.397,678.07 327.897,679.404 329.5,680.5C 328.262,680.81 328.262,681.31 329.5,682C 332.167,683.333 334.833,684.667 337.5,686C 338.833,686.667 338.833,687.333 337.5,688C 339.492,688.574 340.992,689.741 342,691.5C 342.667,688.833 343.333,688.833 344,691.5C 344.388,690.572 345.055,689.905 346,689.5C 349.104,689.743 351.27,691.243 352.5,694C 352.167,694.333 351.833,694.667 351.5,695C 353.897,696.718 356.564,697.885 359.5,698.5C 360.875,700.163 360.542,701.497 358.5,702.5C 359.326,703.451 359.492,704.451 359,705.5C 357.745,706.211 356.579,707.044 355.5,708C 356.654,708.914 356.487,709.747 355,710.5C 353.615,709.449 352.615,708.116 352,706.5C 351,707.167 350,707.833 349,708.5C 346.63,707.872 344.297,707.539 342,707.5C 338.288,710.244 337.788,709.744 340.5,706C 342.235,705.349 343.902,705.515 345.5,706.5C 346.833,705.167 346.833,703.833 345.5,702.5C 344.808,703.025 344.308,703.692 344,704.5C 342.127,705.089 340.46,704.422 339,702.5C 337.385,704.905 336.719,704.905 337,702.5C 338.46,699.79 340.46,699.124 343,700.5C 343.465,699.069 344.299,697.903 345.5,697C 342.546,696.701 339.712,695.868 337,694.5C 335.716,695.572 335.383,696.905 336,698.5C 335.052,696.43 333.552,694.93 331.5,694C 332.687,692.981 333.687,691.814 334.5,690.5C 332.074,689.832 329.741,689.498 327.5,689.5C 326.218,691.179 325.218,693.013 324.5,695C 323.258,695.311 322.258,694.811 321.5,693.5C 320.914,693.709 320.414,694.043 320,694.5C 320.984,696.598 320.651,698.598 319,700.5C 316.553,700.614 314.053,700.614 311.5,700.5C 312.025,699.808 312.692,699.308 313.5,699C 312.874,698.25 312.374,697.416 312,696.5C 311.535,697.931 310.701,699.097 309.5,700C 310.451,700.718 310.617,701.551 310,702.5C 305.258,698.714 301.091,694.381 297.5,689.5C 298.665,688.416 299.998,687.583 301.5,687C 298.724,685.221 299.057,684.221 302.5,684C 297.682,680.903 297.349,677.403 301.5,673.5C 298.652,673.514 296.152,673.181 294,672.5C 295.15,674.595 295.65,676.762 295.5,679C 293.406,679.445 291.906,678.612 291,676.5C 290.601,676.728 290.435,677.062 290.5,677.5C 287.775,671.378 285.608,665.044 284,658.5C 283.536,659.094 283.369,659.761 283.5,660.5C 282.596,659.791 282.263,658.791 282.5,657.5C 283.156,656.378 283.489,655.045 283.5,653.5C 282.061,644.878 281.061,636.212 280.5,627.5C 258.784,621.321 237.117,614.988 215.5,608.5C 213.645,616.236 211.478,623.902 209,631.5C 208.22,633.387 208.387,635.054 209.5,636.5C 209.737,637.791 209.404,638.791 208.5,639.5C 208.279,636.903 207.779,636.903 207,639.5C 198.853,668.09 191.019,696.757 183.5,725.5C 189.494,731.827 195.494,738.161 201.5,744.5C 202.882,747.394 204.882,749.894 207.5,752C 206.874,752.75 206.374,753.584 206,754.5C 204.817,753.269 203.651,753.269 202.5,754.5C 204.991,755.541 204.991,756.374 202.5,757C 204.158,757.725 204.658,758.892 204,760.5C 202.647,759.315 201.48,757.981 200.5,756.5C 199.494,756.938 199.494,757.604 200.5,758.5C 199.758,759.287 198.925,759.953 198,760.5C 196.635,756.828 194.635,756.494 192,759.5C 191.922,761.657 191.755,763.657 191.5,765.5C 190.749,764.624 190.249,763.624 190,762.5C 189.683,764.301 189.016,764.634 188,763.5C 186.887,765.329 185.387,766.163 183.5,766C 185.973,764.598 185.973,763.098 183.5,761.5C 184.833,760.167 184.833,758.833 183.5,757.5C 184.391,756.41 185.391,756.41 186.5,757.5C 186.109,756.282 186.776,755.448 188.5,755C 187.101,754.405 185.768,754.572 184.5,755.5C 183.069,755.023 181.736,754.357 180.5,753.5C 182.587,751.088 184.587,748.588 186.5,746C 185.874,745.25 185.374,744.416 185,743.5C 183.992,743.018 182.825,742.852 181.5,743C 180.853,741.391 180.02,739.891 179,738.5C 177.951,739.517 176.784,739.684 175.5,739C 173.941,736.636 171.775,735.136 169,734.5C 168.667,735.167 168.333,735.833 168,736.5C 167.107,735.289 166.274,735.289 165.5,736.5C 170.901,739.025 171.568,741.525 167.5,744C 168.649,746.189 169.315,748.189 169.5,750C 167.939,750.188 167.272,749.355 167.5,747.5C 166.5,747.5 165.5,747.5 164.5,747.5C 164.719,746.325 164.386,745.325 163.5,744.5C 159.702,748.603 159.035,748.27 161.5,743.5C 160.998,742.284 160.665,741.117 160.5,740C 161.833,740 163.167,740 164.5,740C 162.68,739.021 161.513,737.521 161,735.5C 159.927,736.28 158.76,736.113 157.5,735C 161.223,733.635 161.223,731.968 157.5,730C 158.167,729.667 158.833,729.333 159.5,729C 157.401,727.318 156.068,725.652 155.5,724C 156.308,723.692 156.975,723.192 157.5,722.5C 153.088,718.801 150.755,714.134 150.5,708.5C 164.014,659.783 177.847,611.116 192,562.5C 198.047,549.46 206.047,537.793 216,527.5C 239.755,503.577 263.589,479.911 287.5,456.5 Z"/></g>
<g><path style="opacity:0.953" fill="#ef5c63" d="M 480.5,400.5 C 481.239,400.369 481.906,400.536 482.5,401C 473.298,410.035 464.298,419.202 455.5,428.5C 430.247,453.421 405.247,478.754 380.5,504.5C 351.067,534.495 321.734,564.662 292.5,595C 290.246,596.15 287.913,596.484 285.5,596C 272.155,591.665 258.822,587.331 245.5,583C 244.262,582.31 244.262,581.81 245.5,581.5C 258.845,585.559 272.179,589.726 285.5,594C 287.167,594.667 288.833,594.667 290.5,594C 353.549,528.923 416.882,464.423 480.5,400.5 Z"/></g>
<g><path style="opacity:0.969" fill="#f4645f" d="M 661.5,473.5 C 654.167,481.5 646.5,489.167 638.5,496.5C 637.957,496.44 637.624,496.107 637.5,495.5C 644.987,488.179 652.321,480.679 659.5,473C 660.437,472.308 661.103,472.475 661.5,473.5 Z"/></g>
<g><path style="opacity:1" fill="#f76463" d="M 719.5,450.5 C 697.062,473.438 674.395,496.272 651.5,519C 650.906,519.464 650.239,519.631 649.5,519.5C 649.369,518.761 649.536,518.094 650,517.5C 687.73,480.27 724.897,442.604 761.5,404.5C 761.56,403.957 761.893,403.624 762.5,403.5C 763.521,404.002 763.688,404.668 763,405.5C 747.829,420.165 733.329,435.165 719.5,450.5 Z"/></g>
<g><path style="opacity:0.957" fill="#f16260" d="M 636.5,498.5 C 626.833,508.833 616.833,518.833 606.5,528.5C 606.062,528.565 605.728,528.399 605.5,528C 610.354,523.645 614.687,518.812 618.5,513.5C 623.96,508.577 629.293,503.41 634.5,498C 635.437,497.308 636.103,497.475 636.5,498.5 Z"/></g>
<g><path style="opacity:0.945" fill="#ec555a" d="M 319.5,477.5 C 294.092,503.741 268.259,529.408 242,554.5C 236.063,560.598 231.563,567.598 228.5,575.5C 227.903,575.265 227.57,574.765 227.5,574C 229.762,567.977 232.928,562.477 237,557.5C 250.702,543.965 264.202,530.299 277.5,516.5C 291.167,503 305,489.667 319,476.5C 319.399,476.728 319.565,477.062 319.5,477.5 Z"/></g>
<g><path style="opacity:0.997" fill="#ee6990" d="M 455.5,428.5 C 456.315,429.429 457.148,430.429 458,431.5C 460.677,429.934 462.01,430.6 462,433.5C 461.346,432.304 460.846,432.304 460.5,433.5C 462.745,435.587 465.412,436.921 468.5,437.5C 466.944,439.701 465.777,439.701 465,437.5C 464.333,438.833 463.667,440.167 463,441.5C 459.903,440.711 459.736,439.544 462.5,438C 460.641,436.442 459.141,434.609 458,432.5C 457.308,433.025 456.808,433.692 456.5,434.5C 457.711,435.874 458.711,437.374 459.5,439C 459.333,439.5 459.167,440 459,440.5C 458.195,438.099 457.362,438.266 456.5,441C 457.667,441.5 458.5,442.333 459,443.5C 459.423,442.044 460.256,441.544 461.5,442C 460.167,442.667 460.167,443.333 461.5,444C 460.833,444.333 460.167,444.667 459.5,445C 461.158,445.725 461.658,446.892 461,448.5C 460.311,447.643 459.478,446.977 458.5,446.5C 457.304,446.846 457.304,447.346 458.5,448C 457.5,448.5 456.5,449 455.5,449.5C 454.5,446.833 453.5,446.833 452.5,449.5C 453.729,450.281 455.062,450.781 456.5,451C 456,451.5 455.5,452 455,452.5C 453.984,451.366 453.317,451.699 453,453.5C 452.282,450.766 450.782,450.1 448.5,451.5C 449.313,452.814 450.313,453.981 451.5,455C 450.224,457.166 450.557,459.166 452.5,461C 450.874,462.819 448.874,464.152 446.5,465C 447.917,468.249 449.917,471.083 452.5,473.5C 450.741,474.754 449.241,474.421 448,472.5C 446.842,472.998 446.009,473.831 445.5,475C 447.808,477.471 449.475,480.304 450.5,483.5C 425.756,508.745 400.756,533.911 375.5,559C 375.728,559.399 376.062,559.565 376.5,559.5C 376.672,560.492 376.338,561.158 375.5,561.5C 374.391,561.557 373.391,561.89 372.5,562.5C 370.954,560.261 369.954,558.095 369.5,556C 368.833,555.333 368.167,555.333 367.5,556C 368.535,557.507 368.368,559.007 367,560.5C 365.887,559.24 365.72,558.073 366.5,557C 364.536,555.206 363.036,555.706 362,558.5C 362.57,556.307 362.236,554.307 361,552.5C 360.632,553.91 359.799,554.91 358.5,555.5C 357.261,553.993 357.595,552.826 359.5,552C 356.666,551.955 354.166,551.121 352,549.5C 350.73,552.106 349.063,554.439 347,556.5C 344.114,553.632 344.281,551.298 347.5,549.5C 345.896,548.397 344.896,546.897 344.5,545C 345.137,543.287 346.137,543.121 347.5,544.5C 348.281,543.271 348.781,541.938 349,540.5C 349.333,541.5 349.667,542.5 350,543.5C 350.9,542.23 352.066,541.23 353.5,540.5C 352.975,539.808 352.308,539.308 351.5,539C 353.991,538.374 353.991,537.541 351.5,536.5C 353.132,536.762 354.299,535.762 355,533.5C 355.5,535 356,536.5 356.5,538C 356.095,538.945 355.428,539.612 354.5,540C 356.167,540.667 357.833,540.667 359.5,540C 356.833,539.333 356.833,538.667 359.5,538C 358.643,537.311 357.977,536.478 357.5,535.5C 359.085,533.913 360.752,533.08 362.5,533C 361.5,532.667 360.5,532.333 359.5,532C 360.672,531.581 361.672,530.915 362.5,530C 360.122,529.026 360.456,528.359 363.5,528C 366.624,525.32 368.124,522.154 368,518.5C 373.072,513.97 377.239,509.303 380.5,504.5C 405.247,478.754 430.247,453.421 455.5,428.5 Z"/></g>
<g><path style="opacity:0.997" fill="#f0698d" d="M 605.5,476.5 C 604.272,479.075 602.605,481.408 600.5,483.5C 600.746,484.773 600.746,485.94 600.5,487C 599.251,488.824 598.085,488.657 597,486.5C 595.333,488.167 593.667,489.833 592,491.5C 591.667,493.833 591.333,496.167 591,498.5C 590.086,497.346 589.253,497.513 588.5,499C 589.833,500 591.167,501 592.5,502C 592.167,502.333 591.833,502.667 591.5,503C 594.167,504.333 594.167,505.667 591.5,507C 593.211,508.133 593.711,509.633 593,511.5C 592.331,508.972 591.498,508.972 590.5,511.5C 591.991,512.244 593.491,512.91 595,513.5C 595.492,512.451 595.326,511.451 594.5,510.5C 596.033,508.362 597.866,507.695 600,508.5C 601.252,506.999 602.252,505.332 603,503.5C 604.495,505.11 604.661,506.776 603.5,508.5C 605.562,510.901 607.229,513.567 608.5,516.5C 610.459,515.252 611.959,513.585 613,511.5C 613.85,512.424 614.85,512.424 616,511.5C 617.011,512.056 617.844,512.722 618.5,513.5C 614.687,518.812 610.354,523.645 605.5,528C 605.728,528.399 606.062,528.565 606.5,528.5C 606.167,529.5 605.5,530.167 604.5,530.5C 604.103,529.475 603.437,529.308 602.5,530C 595.694,536.806 588.86,543.64 582,550.5C 581.308,551.437 581.475,552.103 582.5,552.5C 581.833,553.833 580.833,554.833 579.5,555.5C 579.103,554.475 578.437,554.308 577.5,555C 568.574,563.421 560.241,572.254 552.5,581.5C 552.5,582.833 551.833,583.5 550.5,583.5C 550.565,583.062 550.399,582.728 550,582.5C 529.634,602.034 509.467,621.701 489.5,641.5C 489.649,640.448 489.483,639.448 489,638.5C 488.346,639.696 487.846,639.696 487.5,638.5C 488.641,637.575 488.641,636.741 487.5,636C 488.167,635.667 488.833,635.333 489.5,635C 488.151,634.228 487.318,633.061 487,631.5C 486.085,632.328 485.419,633.328 485,634.5C 482.887,632.729 483.053,631.229 485.5,630C 483.405,629.444 483.238,628.944 485,628.5C 485.945,628.905 486.612,629.572 487,630.5C 487.914,626.815 488.581,627.148 489,631.5C 491.979,628.679 491.146,626.846 486.5,626C 488.651,624.595 490.318,622.761 491.5,620.5C 490.687,619.186 489.687,618.019 488.5,617C 489.167,616.667 489.833,616.333 490.5,616C 488.5,615 486.5,614 484.5,613C 488.384,611.181 488.884,609.014 486,606.5C 484.404,608.936 482.571,609.436 480.5,608C 481.563,606.812 482.897,606.312 484.5,606.5C 484.863,604.089 483.863,602.589 481.5,602C 482.744,599.697 484.411,599.197 486.5,600.5C 488.216,598.563 488.549,596.563 487.5,594.5C 487.369,593.761 487.536,593.094 488,592.5C 509.727,570.721 531.56,549.054 553.5,527.5C 570.807,510.527 588.14,493.527 605.5,476.5 Z"/></g>
<g><path style="opacity:0.847" fill="#ef5858" d="M 511.5,423.5 C 511.833,423.5 512.167,423.5 512.5,423.5C 467.23,469.437 421.896,514.77 376.5,559.5C 376.062,559.565 375.728,559.399 375.5,559C 400.756,533.911 425.756,508.745 450.5,483.5C 470.753,463.582 491.086,443.582 511.5,423.5 Z"/></g>
<g><path style="opacity:0.996" fill="#f26062" d="M 604.5,530.5 C 597.5,538.167 590.167,545.5 582.5,552.5C 581.475,552.103 581.308,551.437 582,550.5C 588.86,543.64 595.694,536.806 602.5,530C 603.437,529.308 604.103,529.475 604.5,530.5 Z"/></g>
<g><path style="opacity:0.996" fill="#f0678c" d="M 674.5,544.5 C 645.5,574.167 616.167,603.5 586.5,632.5C 586.095,631.45 585.429,631.45 584.5,632.5C 582.396,635.775 579.563,638.109 576,639.5C 575.667,639.167 575.333,638.833 575,638.5C 576.07,641.222 575.237,643.388 572.5,645C 570.888,645.72 569.388,645.554 568,644.5C 567.5,645 567,645.5 566.5,646C 567.802,650.09 566.302,652.924 562,654.5C 558.494,652.518 556.328,649.518 555.5,645.5C 555.662,647.631 554.329,648.631 551.5,648.5C 551.649,647.448 551.483,646.448 551,645.5C 549.69,647.293 549.19,649.126 549.5,651C 550.167,651.333 550.833,651.667 551.5,652C 550.207,652.49 548.873,652.657 547.5,652.5C 548.109,648.995 546.942,646.328 544,644.5C 543.311,645.357 542.478,646.023 541.5,646.5C 540.232,645.572 538.899,645.405 537.5,646C 539.797,647.16 539.464,648.16 536.5,649C 538.615,649.424 539.448,650.591 539,652.5C 538.333,651.833 537.667,651.167 537,650.5C 535.612,651.554 534.112,651.72 532.5,651C 533.833,650.333 533.833,649.667 532.5,649C 536.648,649.043 536.481,648.209 532,646.5C 531.647,645.328 531.813,644.162 532.5,643C 532.164,641.97 531.497,641.47 530.5,641.5C 560.588,611.08 590.588,580.747 620.5,550.5C 622.547,551.78 624.88,553.447 627.5,555.5C 628.648,553.851 629.981,552.351 631.5,551C 634.544,550.641 634.878,549.974 632.5,549C 634.667,548.167 636.167,546.667 637,544.5C 637.333,545.5 637.667,546.5 638,547.5C 639.333,545.5 640.667,543.5 642,541.5C 642.195,543.207 642.195,544.874 642,546.5C 644.312,543.961 646.312,544.295 648,547.5C 651.131,546.963 654.131,546.963 657,547.5C 657.5,548 658,548.5 658.5,549C 657.66,550.666 658.16,550.833 660,549.5C 660.333,550.167 660.667,550.833 661,551.5C 662.676,551.705 664.176,550.872 665.5,549C 664.833,548.667 664.167,548.333 663.5,548C 666.213,547.412 667.88,547.745 668.5,549C 670.114,546.907 670.947,544.74 671,542.5C 672.302,543.085 673.469,543.751 674.5,544.5 Z"/></g>
<g><path style="opacity:0.004" fill="#fe00ff" d="M 675.5,547.5 C 676.833,548.167 676.833,548.167 675.5,547.5 Z"/></g>
<g><path style="opacity:0.898" fill="#ef5b5a" d="M 579.5,555.5 C 570.473,564.194 561.473,572.861 552.5,581.5C 560.241,572.254 568.574,563.421 577.5,555C 578.437,554.308 579.103,554.475 579.5,555.5 Z"/></g>
<g><path style="opacity:1" fill="#ec545d" d="M 300.5,439.5 C 301.239,439.369 301.906,439.536 302.5,440C 296.981,445.078 291.981,450.578 287.5,456.5C 263.589,479.911 239.755,503.577 216,527.5C 206.047,537.793 198.047,549.46 192,562.5C 177.847,611.116 164.014,659.783 150.5,708.5C 140.776,745.286 130.609,781.953 120,818.5C 112.405,846.825 122.572,864.991 150.5,873C 149.552,873.483 148.552,873.649 147.5,873.5C 128.259,868.737 117.592,856.403 115.5,836.5C 116.502,824.703 119.002,813.369 123,802.5C 144.797,723.442 166.797,644.442 189,565.5C 193.809,553.875 200.142,543.208 208,533.5C 238.674,501.993 269.507,470.66 300.5,439.5 Z"/></g>
<g><path style="opacity:0.859" fill="#ef545b" d="M 282.5,657.5 C 280.953,647.95 279.287,638.45 277.5,629C 256.898,622.399 236.565,616.233 216.5,610.5C 214.569,619.289 212.236,627.956 209.5,636.5C 208.387,635.054 208.22,633.387 209,631.5C 211.478,623.902 213.645,616.236 215.5,608.5C 237.117,614.988 258.784,621.321 280.5,627.5C 281.061,636.212 282.061,644.878 283.5,653.5C 283.489,655.045 283.156,656.378 282.5,657.5 Z"/></g>
<g><path style="opacity:0.996" fill="#eb658f" d="M 487.5,594.5 C 488.549,596.563 488.216,598.563 486.5,600.5C 484.411,599.197 482.744,599.697 481.5,602C 483.863,602.589 484.863,604.089 484.5,606.5C 482.897,606.312 481.563,606.812 480.5,608C 482.571,609.436 484.404,608.936 486,606.5C 488.884,609.014 488.384,611.181 484.5,613C 486.5,614 488.5,615 490.5,616C 489.833,616.333 489.167,616.667 488.5,617C 489.687,618.019 490.687,619.186 491.5,620.5C 490.318,622.761 488.651,624.595 486.5,626C 491.146,626.846 491.979,628.679 489,631.5C 488.581,627.148 487.914,626.815 487,630.5C 486.612,629.572 485.945,628.905 485,628.5C 483.238,628.944 483.405,629.444 485.5,630C 483.053,631.229 482.887,632.729 485,634.5C 485.419,633.328 486.085,632.328 487,631.5C 487.318,633.061 488.151,634.228 489.5,635C 488.833,635.333 488.167,635.667 487.5,636C 488.641,636.741 488.641,637.575 487.5,638.5C 487.846,639.696 488.346,639.696 489,638.5C 489.483,639.448 489.649,640.448 489.5,641.5C 463.641,667.19 437.474,692.857 411,718.5C 410.209,719.745 409.709,721.078 409.5,722.5C 406.366,720.746 405.366,718.246 406.5,715C 406,714.5 405.5,714 405,713.5C 403.345,713.802 402.012,715.136 401,717.5C 399.951,716.483 398.784,716.316 397.5,717C 397.882,720.057 399.882,722.057 403.5,723C 402.333,723.5 401.5,724.333 401,725.5C 400.683,723.699 400.016,723.366 399,724.5C 398.517,723.552 398.351,722.552 398.5,721.5C 396.173,721.335 394.007,720.669 392,719.5C 390.221,721.017 390.721,721.851 393.5,722C 392,722.833 390.833,724 390,725.5C 388.887,724.24 388.72,723.073 389.5,722C 387.545,721.047 385.878,719.713 384.5,718C 386.766,716.155 389.433,713.822 392.5,711C 390.721,711.979 389.055,711.646 387.5,710C 389.267,708.512 389.601,707.012 388.5,705.5C 387.186,706.313 386.019,707.313 385,708.5C 383.933,707.809 382.766,707.309 381.5,707C 382.646,706.355 383.646,705.522 384.5,704.5C 385.812,705.46 387.146,705.294 388.5,704C 384.543,698.415 379.21,695.582 372.5,695.5C 378.105,696.092 383.439,695.259 388.5,693C 421.476,659.857 454.476,627.023 487.5,594.5 Z"/></g>
<g><path style="opacity:0.949" fill="#ee5a61" d="M 553.5,525.5 C 553.5,526.167 553.5,526.833 553.5,527.5C 531.56,549.054 509.727,570.721 488,592.5C 487.536,593.094 487.369,593.761 487.5,594.5C 454.476,627.023 421.476,659.857 388.5,693C 383.439,695.259 378.105,696.092 372.5,695.5C 357.382,692.683 343.048,687.683 329.5,680.5C 327.897,679.404 326.397,678.07 325,676.5C 320.33,669.154 317.33,661.154 316,652.5C 312.014,640.492 312.681,628.826 318,617.5C 336.234,598.835 354.4,580.502 372.5,562.5C 373.391,561.89 374.391,561.557 375.5,561.5C 357.202,580.299 338.702,598.965 320,617.5C 316.859,622.857 315.359,628.69 315.5,635C 316.081,648.491 319.248,661.324 325,673.5C 333.459,681.147 343.292,686.314 354.5,689C 362.516,691.546 370.683,693.379 379,694.5C 383.098,694.034 386.598,692.367 389.5,689.5C 443.908,634.425 498.575,579.758 553.5,525.5 Z"/></g>
<g><path style="opacity:0.267" fill="#ec555a" d="M 550.5,583.5 C 503.953,629.881 457.287,676.047 410.5,722C 413.919,729.337 416.919,736.837 419.5,744.5C 419.672,745.492 419.338,746.158 418.5,746.5C 415.506,738.51 412.506,730.51 409.5,722.5C 409.709,721.078 410.209,719.745 411,718.5C 437.474,692.857 463.641,667.19 489.5,641.5C 509.467,621.701 529.634,602.034 550,582.5C 550.399,582.728 550.565,583.062 550.5,583.5 Z"/></g>
<g><path style="opacity:0.004" fill="#fe00ff" d="M 566.5,657.5 C 567.833,658.167 567.833,658.167 566.5,657.5 Z"/></g>
<g><path style="opacity:0.004" fill="#fe00ff" d="M 547.5,675.5 C 548.833,676.167 548.833,676.167 547.5,675.5 Z"/></g>
<g><path style="opacity:0.004" fill="#fe00ff" d="M 547.5,676.5 C 546.833,677.167 546.833,677.167 547.5,676.5 Z"/></g>
<g><path style="opacity:0.004" fill="#fe00ff" d="M 151.5,689.5 C 152.833,690.167 152.833,690.167 151.5,689.5 Z"/></g>
<g><path style="opacity:0.91" fill="#ef5860" d="M 649.5,519.5 C 649.631,520.239 649.464,520.906 649,521.5C 639.243,531.089 629.743,540.755 620.5,550.5C 590.588,580.747 560.588,611.08 530.5,641.5C 495.469,675.361 460.469,709.527 425.5,744C 424.563,744.692 423.897,744.525 423.5,743.5C 499.321,669.01 574.655,594.344 649.5,519.5 Z"/></g>
<g><path style="opacity:0.996" fill="#ea638d" d="M 586.5,632.5 C 573.702,645.798 560.702,658.965 547.5,672C 548.056,672.383 548.389,672.883 548.5,673.5C 548.5,674.167 548.167,674.5 547.5,674.5C 547.103,673.475 546.437,673.308 545.5,674C 514.78,703.72 484.447,733.72 454.5,764C 446.191,771.817 437.191,778.651 427.5,784.5C 425.482,783.953 423.649,782.953 422,781.5C 420.913,783.932 420.413,783.598 420.5,780.5C 421.552,780.649 422.552,780.483 423.5,780C 422.167,779.333 422.167,778.667 423.5,778C 420.288,776.982 418.455,774.816 418,771.5C 417.346,772.696 416.846,772.696 416.5,771.5C 417.124,769.246 418.457,767.579 420.5,766.5C 419.018,764.517 417.351,762.684 415.5,761C 417.125,760.147 417.458,759.147 416.5,758C 420.376,758.349 420.376,757.516 416.5,755.5C 418.256,755.64 419.922,755.14 421.5,754C 417.688,752.568 416.688,750.068 418.5,746.5C 419.338,746.158 419.672,745.492 419.5,744.5C 421.195,745.826 422.528,745.493 423.5,743.5C 423.897,744.525 424.563,744.692 425.5,744C 460.469,709.527 495.469,675.361 530.5,641.5C 531.497,641.47 532.164,641.97 532.5,643C 531.813,644.162 531.647,645.328 532,646.5C 536.481,648.209 536.648,649.043 532.5,649C 533.833,649.667 533.833,650.333 532.5,651C 534.112,651.72 535.612,651.554 537,650.5C 537.667,651.167 538.333,651.833 539,652.5C 539.448,650.591 538.615,649.424 536.5,649C 539.464,648.16 539.797,647.16 537.5,646C 538.899,645.405 540.232,645.572 541.5,646.5C 542.478,646.023 543.311,645.357 544,644.5C 546.942,646.328 548.109,648.995 547.5,652.5C 548.873,652.657 550.207,652.49 551.5,652C 550.833,651.667 550.167,651.333 549.5,651C 549.19,649.126 549.69,647.293 551,645.5C 551.483,646.448 551.649,647.448 551.5,648.5C 554.329,648.631 555.662,647.631 555.5,645.5C 556.328,649.518 558.494,652.518 562,654.5C 566.302,652.924 567.802,650.09 566.5,646C 567,645.5 567.5,645 568,644.5C 569.388,645.554 570.888,645.72 572.5,645C 575.237,643.388 576.07,641.222 575,638.5C 575.333,638.833 575.667,639.167 576,639.5C 579.563,638.109 582.396,635.775 584.5,632.5C 585.429,631.45 586.095,631.45 586.5,632.5 Z"/></g>
<g><path style="opacity:0.647" fill="#ec5258" d="M 290.5,677.5 C 295.593,691.765 304.593,702.932 317.5,711C 336.028,720.589 355.695,726.256 376.5,728C 374.866,728.494 373.199,728.66 371.5,728.5C 343.807,727.335 319.974,717.335 300,698.5C 291.696,687.102 286.196,674.435 283.5,660.5C 283.369,659.761 283.536,659.094 284,658.5C 285.608,665.044 287.775,671.378 290.5,677.5 Z"/></g>
<g><path style="opacity:0.004" fill="#fe00ff" d="M 505.5,716.5 C 506.833,717.167 506.833,717.167 505.5,716.5 Z"/></g>
<g><path style="opacity:0.902" fill="#e75156" d="M 547.5,674.5 C 533.167,688.167 519.167,702.167 505.5,716.5C 483.751,737.411 461.751,758.244 439.5,779C 424.743,788.644 408.743,795.478 391.5,799.5C 390.262,799.19 390.262,798.69 391.5,798C 403.88,794.301 415.88,789.801 427.5,784.5C 437.191,778.651 446.191,771.817 454.5,764C 484.447,733.72 514.78,703.72 545.5,674C 546.437,673.308 547.103,673.475 547.5,674.5 Z"/></g>
<g><path style="opacity:0.765" fill="#ea5158" d="M 377.5,731.5 C 382.535,739.735 386.535,748.568 389.5,758C 389.43,758.765 389.097,759.265 388.5,759.5C 384.275,750.384 380.609,741.051 377.5,731.5 Z"/></g>
<g><path style="opacity:0.886" fill="#ec5460" d="M 208.5,639.5 C 201.141,667.745 193.474,695.912 185.5,724C 206.798,746.128 228.131,767.961 249.5,789.5C 249.631,790.239 249.464,790.906 249,791.5C 233.299,775.632 217.465,759.965 201.5,744.5C 195.494,738.161 189.494,731.827 183.5,725.5C 191.019,696.757 198.853,668.09 207,639.5C 207.779,636.903 208.279,636.903 208.5,639.5 Z"/></g>
<g><path style="opacity:0.004" fill="#fe00ff" d="M 130.5,767.5 C 131.833,768.167 131.833,768.167 130.5,767.5 Z"/></g>
<g><path style="opacity:0.988" fill="#ee555e" d="M 386.5,762.5 C 389.097,762.721 389.097,763.221 386.5,764C 346.632,777.456 306.632,790.623 266.5,803.5C 265.893,803.376 265.56,803.043 265.5,802.5C 305.715,788.762 346.048,775.428 386.5,762.5 Z"/></g>
<g><path style="opacity:0.549" fill="#eb545b" d="M 252.5,792.5 C 256.167,795.5 259.5,798.833 262.5,802.5C 265.258,803.967 264.925,804.633 261.5,804.5C 258.538,801.036 255.371,797.703 252,794.5C 251.308,793.563 251.475,792.897 252.5,792.5 Z"/></g>
<g><path style="opacity:0.997" fill="#e76490" d="M 150.5,708.5 C 150.755,714.134 153.088,718.801 157.5,722.5C 156.975,723.192 156.308,723.692 155.5,724C 156.068,725.652 157.401,727.318 159.5,729C 158.833,729.333 158.167,729.667 157.5,730C 161.223,731.968 161.223,733.635 157.5,735C 158.76,736.113 159.927,736.28 161,735.5C 161.513,737.521 162.68,739.021 164.5,740C 163.167,740 161.833,740 160.5,740C 160.665,741.117 160.998,742.284 161.5,743.5C 159.035,748.27 159.702,748.603 163.5,744.5C 164.386,745.325 164.719,746.325 164.5,747.5C 165.5,747.5 166.5,747.5 167.5,747.5C 167.272,749.355 167.939,750.188 169.5,750C 169.315,748.189 168.649,746.189 167.5,744C 171.568,741.525 170.901,739.025 165.5,736.5C 166.274,735.289 167.107,735.289 168,736.5C 168.333,735.833 168.667,735.167 169,734.5C 171.775,735.136 173.941,736.636 175.5,739C 176.784,739.684 177.951,739.517 179,738.5C 180.02,739.891 180.853,741.391 181.5,743C 182.825,742.852 183.992,743.018 185,743.5C 185.374,744.416 185.874,745.25 186.5,746C 184.587,748.588 182.587,751.088 180.5,753.5C 181.736,754.357 183.069,755.023 184.5,755.5C 185.768,754.572 187.101,754.405 188.5,755C 186.776,755.448 186.109,756.282 186.5,757.5C 185.391,756.41 184.391,756.41 183.5,757.5C 184.833,758.833 184.833,760.167 183.5,761.5C 185.973,763.098 185.973,764.598 183.5,766C 185.387,766.163 186.887,765.329 188,763.5C 189.016,764.634 189.683,764.301 190,762.5C 190.249,763.624 190.749,764.624 191.5,765.5C 191.755,763.657 191.922,761.657 192,759.5C 194.635,756.494 196.635,756.828 198,760.5C 198.925,759.953 199.758,759.287 200.5,758.5C 199.494,757.604 199.494,756.938 200.5,756.5C 201.48,757.981 202.647,759.315 204,760.5C 204.658,758.892 204.158,757.725 202.5,757C 204.991,756.374 204.991,755.541 202.5,754.5C 203.651,753.269 204.817,753.269 206,754.5C 206.374,753.584 206.874,752.75 207.5,752C 204.882,749.894 202.882,747.394 201.5,744.5C 217.465,759.965 233.299,775.632 249,791.5C 249.464,790.906 249.631,790.239 249.5,789.5C 250.833,790.167 251.833,791.167 252.5,792.5C 251.475,792.897 251.308,793.563 252,794.5C 255.371,797.703 258.538,801.036 261.5,804.5C 258.806,808.505 257.139,808.505 256.5,804.5C 255.575,805.641 254.741,805.641 254,804.5C 251.457,805.876 251.291,807.043 253.5,808C 252.167,808.667 252.167,809.333 253.5,810C 251.099,810.805 251.266,811.638 254,812.5C 254.5,812 255,811.5 255.5,811C 254.501,806.365 254.834,806.365 256.5,811C 256.005,813.726 254.838,815.226 253,815.5C 251.632,813.185 250.799,813.185 250.5,815.5C 250.919,816.672 251.585,817.672 252.5,818.5C 251.609,819.59 250.609,819.59 249.5,818.5C 248.808,819.025 248.308,819.692 248,820.5C 247.833,820 247.667,819.5 247.5,819C 248.875,816.685 249.875,814.185 250.5,811.5C 249.726,810.289 248.893,810.289 248,811.5C 247.395,809.519 246.395,809.185 245,810.5C 244.667,812.047 245.167,813.38 246.5,814.5C 243.972,815.816 243.972,816.983 246.5,818C 245.299,818.903 244.465,820.069 244,821.5C 242.703,820.216 241.536,820.383 240.5,822C 241.5,823.667 242.833,825 244.5,826C 243.978,826.561 243.645,827.228 243.5,828C 244.482,828.381 245.148,829.214 245.5,830.5C 245.167,831.167 244.833,831.833 244.5,832.5C 242.423,831.012 241.423,829.012 241.5,826.5C 240.127,826.657 238.793,826.49 237.5,826C 238.888,825.111 238.722,824.611 237,824.5C 233.974,825.538 233.807,826.872 236.5,828.5C 237.086,828.291 237.586,827.957 238,827.5C 238.85,829.01 239.683,830.51 240.5,832C 239.102,833.649 239.436,834.982 241.5,836C 239.5,837.333 237.5,838.667 235.5,840C 237.007,840.837 237.507,842.004 237,843.5C 235.647,842.315 234.48,840.981 233.5,839.5C 232.201,841.307 232.368,842.973 234,844.5C 235.147,843.542 236.147,843.875 237,845.5C 237.928,843.665 239.094,843.332 240.5,844.5C 242.5,843.5 244.5,842.5 246.5,841.5C 247.611,842.611 248.945,843.278 250.5,843.5C 254.863,842.156 259.196,840.823 263.5,839.5C 263.343,838.127 263.51,836.793 264,835.5C 264.893,836.711 265.726,836.711 266.5,835.5C 265.523,831.764 266.19,831.764 268.5,835.5C 267.106,836.687 267.273,837.354 269,837.5C 270.751,835.607 272.418,834.274 274,833.5C 274.308,834.308 274.808,834.975 275.5,835.5C 278.539,834.431 281.539,833.265 284.5,832C 283.531,828.925 281.531,827.925 278.5,829C 280.396,830.065 280.563,830.898 279,831.5C 276.582,831.445 274.082,831.112 271.5,830.5C 272.833,829.5 272.833,828.5 271.5,827.5C 272.441,827.511 273.108,827.011 273.5,826C 271.984,824.073 269.984,822.906 267.5,822.5C 266.137,823.198 264.971,823.198 264,822.5C 263.333,824.167 263.333,825.833 264,827.5C 264.974,825.122 265.641,825.456 266,828.5C 267.044,827.377 267.71,826.044 268,824.5C 268.333,825.5 268.667,826.5 269,827.5C 269.333,827.167 269.667,826.833 270,826.5C 269.461,829.708 267.461,831.708 264,832.5C 263.64,829.572 262.307,828.906 260,830.5C 259.05,829.978 258.216,829.311 257.5,828.5C 255.414,830.023 253.748,829.69 252.5,827.5C 253.816,826.193 254.816,824.693 255.5,823C 256.167,822.333 256.833,822.333 257.5,823C 256.304,823.654 256.304,824.154 257.5,824.5C 257.74,819.201 259.24,818.535 262,822.5C 263,821.5 264,820.5 265,819.5C 265.971,820.198 267.137,820.198 268.5,819.5C 269.647,819.818 270.481,820.484 271,821.5C 272.545,821.634 274.212,821.3 276,820.5C 277.667,822.833 279.333,825.167 281,827.5C 283.651,825.916 285.984,826.249 288,828.5C 288.669,825.972 289.502,825.972 290.5,828.5C 289.624,829.251 288.624,829.751 287.5,830C 294.208,830.574 295.208,828.241 290.5,823C 291,822.833 291.5,822.667 292,822.5C 294.019,824.188 295.686,826.188 297,828.5C 299.188,826.903 301.354,826.569 303.5,827.5C 273.789,837.349 244.122,847.515 214.5,858C 215.094,858.464 215.761,858.631 216.5,858.5C 215.791,859.404 214.791,859.737 213.5,859.5C 212.399,858.402 211.066,858.235 209.5,859C 196.56,863.486 183.56,867.819 170.5,872C 164.034,872.929 157.701,873.763 151.5,874.5C 149.901,874.768 148.568,874.434 147.5,873.5C 148.552,873.649 149.552,873.483 150.5,873C 122.572,864.991 112.405,846.825 120,818.5C 130.609,781.953 140.776,745.286 150.5,708.5 Z M 189.5,782.5 C 190.833,783.167 191.833,784.167 192.5,785.5C 194.5,786.833 196.167,788.5 197.5,790.5C 206.413,797.744 214.747,805.744 222.5,814.5C 223.289,814.783 223.956,815.283 224.5,816C 217.963,817.679 211.63,819.845 205.5,822.5C 204.508,822.328 203.842,822.662 203.5,823.5C 189.359,827.436 175.359,831.77 161.5,836.5C 159.167,835.167 156.833,835.167 154.5,836.5C 154.5,834.833 154.5,833.167 154.5,831.5C 160.043,809.33 166.209,787.33 173,765.5C 178.703,771.035 184.203,776.702 189.5,782.5 Z"/></g>
<g><path style="opacity:1" fill="#ed535b" d="M 205.5,822.5 C 211.63,819.845 217.963,817.679 224.5,816C 223.956,815.283 223.289,814.783 222.5,814.5C 214.747,805.744 206.413,797.744 197.5,790.5C 196.167,788.5 194.5,786.833 192.5,785.5C 191.833,784.167 190.833,783.167 189.5,782.5C 184.203,776.702 178.703,771.035 173,765.5C 166.209,787.33 160.043,809.33 154.5,831.5C 153.71,832.609 153.21,833.942 153,835.5C 152.39,831.764 152.723,828.097 154,824.5C 159.179,805.449 164.512,786.449 170,767.5C 170.118,765.427 171.118,764.093 173,763.5C 191.126,780.625 208.959,798.125 226.5,816C 220.251,819.026 213.751,821.526 207,823.5C 206.235,823.43 205.735,823.097 205.5,822.5 Z"/></g>
<g><path style="opacity:0.004" fill="#fe0000" d="M 374.5,806.5 C 375.833,807.167 375.833,807.167 374.5,806.5 Z"/></g>
<g><path style="opacity:0.988" fill="#ea4f58" d="M 389.5,800.5 C 331.875,819.989 274.209,839.322 216.5,858.5C 215.761,858.631 215.094,858.464 214.5,858C 244.122,847.515 273.789,837.349 303.5,827.5C 331.735,818.255 359.902,808.922 388,799.5C 388.765,799.57 389.265,799.903 389.5,800.5 Z"/></g>
<g><path style="opacity:0.004" fill="#fe0000" d="M 350.5,814.5 C 351.833,815.167 351.833,815.167 350.5,814.5 Z"/></g>
<g><path style="opacity:0.996" fill="#e8638f" d="M 329.5,680.5 C 343.048,687.683 357.382,692.683 372.5,695.5C 379.21,695.582 384.543,698.415 388.5,704C 387.146,705.294 385.812,705.46 384.5,704.5C 383.646,705.522 382.646,706.355 381.5,707C 382.766,707.309 383.933,707.809 385,708.5C 386.019,707.313 387.186,706.313 388.5,705.5C 389.601,707.012 389.267,708.512 387.5,710C 389.055,711.646 390.721,711.979 392.5,711C 389.433,713.822 386.766,716.155 384.5,718C 385.878,719.713 387.545,721.047 389.5,722C 388.72,723.073 388.887,724.24 390,725.5C 390.833,724 392,722.833 393.5,722C 390.721,721.851 390.221,721.017 392,719.5C 394.007,720.669 396.173,721.335 398.5,721.5C 398.351,722.552 398.517,723.552 399,724.5C 400.016,723.366 400.683,723.699 401,725.5C 401.5,724.333 402.333,723.5 403.5,723C 399.882,722.057 397.882,720.057 397.5,717C 398.784,716.316 399.951,716.483 401,717.5C 402.012,715.136 403.345,713.802 405,713.5C 405.5,714 406,714.5 406.5,715C 405.366,718.246 406.366,720.746 409.5,722.5C 412.506,730.51 415.506,738.51 418.5,746.5C 416.688,750.068 417.688,752.568 421.5,754C 419.922,755.14 418.256,755.64 416.5,755.5C 420.376,757.516 420.376,758.349 416.5,758C 417.458,759.147 417.125,760.147 415.5,761C 417.351,762.684 419.018,764.517 420.5,766.5C 418.457,767.579 417.124,769.246 416.5,771.5C 416.846,772.696 417.346,772.696 418,771.5C 418.455,774.816 420.288,776.982 423.5,778C 422.167,778.667 422.167,779.333 423.5,780C 422.552,780.483 421.552,780.649 420.5,780.5C 420.413,783.598 420.913,783.932 422,781.5C 423.649,782.953 425.482,783.953 427.5,784.5C 415.88,789.801 403.88,794.301 391.5,798C 390.262,798.69 390.262,799.19 391.5,799.5C 391.158,800.338 390.492,800.672 389.5,800.5C 389.265,799.903 388.765,799.57 388,799.5C 359.902,808.922 331.735,818.255 303.5,827.5C 301.354,826.569 299.188,826.903 297,828.5C 295.686,826.188 294.019,824.188 292,822.5C 291.5,822.667 291,822.833 290.5,823C 295.208,828.241 294.208,830.574 287.5,830C 288.624,829.751 289.624,829.251 290.5,828.5C 289.502,825.972 288.669,825.972 288,828.5C 285.984,826.249 283.651,825.916 281,827.5C 279.333,825.167 277.667,822.833 276,820.5C 274.212,821.3 272.545,821.634 271,821.5C 270.481,820.484 269.647,819.818 268.5,819.5C 267.137,820.198 265.971,820.198 265,819.5C 264,820.5 263,821.5 262,822.5C 259.24,818.535 257.74,819.201 257.5,824.5C 256.304,824.154 256.304,823.654 257.5,823C 256.833,822.333 256.167,822.333 255.5,823C 254.816,824.693 253.816,826.193 252.5,827.5C 253.748,829.69 255.414,830.023 257.5,828.5C 258.216,829.311 259.05,829.978 260,830.5C 262.307,828.906 263.64,829.572 264,832.5C 267.461,831.708 269.461,829.708 270,826.5C 269.667,826.833 269.333,827.167 269,827.5C 268.667,826.5 268.333,825.5 268,824.5C 267.71,826.044 267.044,827.377 266,828.5C 265.641,825.456 264.974,825.122 264,827.5C 263.333,825.833 263.333,824.167 264,822.5C 264.971,823.198 266.137,823.198 267.5,822.5C 269.984,822.906 271.984,824.073 273.5,826C 273.108,827.011 272.441,827.511 271.5,827.5C 272.833,828.5 272.833,829.5 271.5,830.5C 274.082,831.112 276.582,831.445 279,831.5C 280.563,830.898 280.396,830.065 278.5,829C 281.531,827.925 283.531,828.925 284.5,832C 281.539,833.265 278.539,834.431 275.5,835.5C 274.808,834.975 274.308,834.308 274,833.5C 272.418,834.274 270.751,835.607 269,837.5C 267.273,837.354 267.106,836.687 268.5,835.5C 266.19,831.764 265.523,831.764 266.5,835.5C 265.726,836.711 264.893,836.711 264,835.5C 263.51,836.793 263.343,838.127 263.5,839.5C 259.196,840.823 254.863,842.156 250.5,843.5C 248.945,843.278 247.611,842.611 246.5,841.5C 244.5,842.5 242.5,843.5 240.5,844.5C 239.094,843.332 237.928,843.665 237,845.5C 236.147,843.875 235.147,843.542 234,844.5C 232.368,842.973 232.201,841.307 233.5,839.5C 234.48,840.981 235.647,842.315 237,843.5C 237.507,842.004 237.007,840.837 235.5,840C 237.5,838.667 239.5,837.333 241.5,836C 239.436,834.982 239.102,833.649 240.5,832C 239.683,830.51 238.85,829.01 238,827.5C 237.586,827.957 237.086,828.291 236.5,828.5C 233.807,826.872 233.974,825.538 237,824.5C 238.722,824.611 238.888,825.111 237.5,826C 238.793,826.49 240.127,826.657 241.5,826.5C 241.423,829.012 242.423,831.012 244.5,832.5C 244.833,831.833 245.167,831.167 245.5,830.5C 245.148,829.214 244.482,828.381 243.5,828C 243.645,827.228 243.978,826.561 244.5,826C 242.833,825 241.5,823.667 240.5,822C 241.536,820.383 242.703,820.216 244,821.5C 244.465,820.069 245.299,818.903 246.5,818C 243.972,816.983 243.972,815.816 246.5,814.5C 245.167,813.38 244.667,812.047 245,810.5C 246.395,809.185 247.395,809.519 248,811.5C 248.893,810.289 249.726,810.289 250.5,811.5C 249.875,814.185 248.875,816.685 247.5,819C 247.667,819.5 247.833,820 248,820.5C 248.308,819.692 248.808,819.025 249.5,818.5C 250.609,819.59 251.609,819.59 252.5,818.5C 251.585,817.672 250.919,816.672 250.5,815.5C 250.799,813.185 251.632,813.185 253,815.5C 254.838,815.226 256.005,813.726 256.5,811C 254.834,806.365 254.501,806.365 255.5,811C 255,811.5 254.5,812 254,812.5C 251.266,811.638 251.099,810.805 253.5,810C 252.167,809.333 252.167,808.667 253.5,808C 251.291,807.043 251.457,805.876 254,804.5C 254.741,805.641 255.575,805.641 256.5,804.5C 257.139,808.505 258.806,808.505 261.5,804.5C 264.925,804.633 265.258,803.967 262.5,802.5C 263.5,802.5 264.5,802.5 265.5,802.5C 265.56,803.043 265.893,803.376 266.5,803.5C 306.632,790.623 346.632,777.456 386.5,764C 389.097,763.221 389.097,762.721 386.5,762.5C 387.551,761.778 388.218,760.778 388.5,759.5C 389.097,759.265 389.43,758.765 389.5,758C 386.535,748.568 382.535,739.735 377.5,731.5C 375.639,730.158 373.639,729.158 371.5,728.5C 373.199,728.66 374.866,728.494 376.5,728C 355.695,726.256 336.028,720.589 317.5,711C 304.593,702.932 295.593,691.765 290.5,677.5C 290.435,677.062 290.601,676.728 291,676.5C 291.906,678.612 293.406,679.445 295.5,679C 295.65,676.762 295.15,674.595 294,672.5C 296.152,673.181 298.652,673.514 301.5,673.5C 297.349,677.403 297.682,680.903 302.5,684C 299.057,684.221 298.724,685.221 301.5,687C 299.998,687.583 298.665,688.416 297.5,689.5C 301.091,694.381 305.258,698.714 310,702.5C 310.617,701.551 310.451,700.718 309.5,700C 310.701,699.097 311.535,697.931 312,696.5C 312.374,697.416 312.874,698.25 313.5,699C 312.692,699.308 312.025,699.808 311.5,700.5C 314.053,700.614 316.553,700.614 319,700.5C 320.651,698.598 320.984,696.598 320,694.5C 320.414,694.043 320.914,693.709 321.5,693.5C 322.258,694.811 323.258,695.311 324.5,695C 325.218,693.013 326.218,691.179 327.5,689.5C 329.741,689.498 332.074,689.832 334.5,690.5C 333.687,691.814 332.687,692.981 331.5,694C 333.552,694.93 335.052,696.43 336,698.5C 335.383,696.905 335.716,695.572 337,694.5C 339.712,695.868 342.546,696.701 345.5,697C 344.299,697.903 343.465,699.069 343,700.5C 340.46,699.124 338.46,699.79 337,702.5C 336.719,704.905 337.385,704.905 339,702.5C 340.46,704.422 342.127,705.089 344,704.5C 344.308,703.692 344.808,703.025 345.5,702.5C 346.833,703.833 346.833,705.167 345.5,706.5C 343.902,705.515 342.235,705.349 340.5,706C 337.788,709.744 338.288,710.244 342,707.5C 344.297,707.539 346.63,707.872 349,708.5C 350,707.833 351,707.167 352,706.5C 352.615,708.116 353.615,709.449 355,710.5C 356.487,709.747 356.654,708.914 355.5,708C 356.579,707.044 357.745,706.211 359,705.5C 359.492,704.451 359.326,703.451 358.5,702.5C 360.542,701.497 360.875,700.163 359.5,698.5C 356.564,697.885 353.897,696.718 351.5,695C 351.833,694.667 352.167,694.333 352.5,694C 351.27,691.243 349.104,689.743 346,689.5C 345.055,689.905 344.388,690.572 344,691.5C 343.333,688.833 342.667,688.833 342,691.5C 340.992,689.741 339.492,688.574 337.5,688C 338.833,687.333 338.833,686.667 337.5,686C 334.833,684.667 332.167,683.333 329.5,682C 328.262,681.31 328.262,680.81 329.5,680.5 Z"/></g>
<g><path style="opacity:0.996" fill="#ed535d" d="M 203.5,823.5 C 203.938,823.435 204.272,823.601 204.5,824C 190.624,828.971 176.624,833.637 162.5,838C 159.833,838.667 157.167,838.667 154.5,838C 157.036,837.814 159.369,837.314 161.5,836.5C 175.359,831.77 189.359,827.436 203.5,823.5 Z"/></g>
<g><path style="opacity:0.004" fill="#fe00ff" d="M 302.5,830.5 C 303.833,831.167 303.833,831.167 302.5,830.5 Z"/></g>
<g><path style="opacity:0.004" fill="#fe00ff" d="M 294.5,833.5 C 295.833,834.167 295.833,834.167 294.5,833.5 Z"/></g>
<g><path style="opacity:0.004" fill="#fe00ff" d="M 119.5,856.5 C 120.833,857.167 120.833,857.167 119.5,856.5 Z"/></g>
<g><path style="opacity:0.463" fill="#e84f58" d="M 213.5,859.5 C 195.909,866.253 177.909,871.586 159.5,875.5C 156.885,874.731 154.219,874.397 151.5,874.5C 157.701,873.763 164.034,872.929 170.5,872C 183.56,867.819 196.56,863.486 209.5,859C 211.066,858.235 212.399,858.402 213.5,859.5 Z"/></g>
<g><path style="opacity:0.004" fill="#fe00ff" d="M 186.5,869.5 C 187.833,870.167 187.833,870.167 186.5,869.5 Z"/></g>
<g><path style="opacity:0.008" fill="#fe807f" d="M 148.5,875.5 C 149.833,876.167 149.833,876.167 148.5,875.5 Z"/></g>
</svg>
